<svg width="215" height="79" viewBox="0 0 215 79" fill="none" xmlns="http://www.w3.org/2000/svg">
<rect width="215" height="79" fill="#1E1E1E"/>
<rect width="1292" height="2060" transform="translate(-820 -827)" fill="url(#paint0_linear_33_2)"/>
<rect x="0.5" y="0.5" width="214" height="78" rx="22.5" fill="#00BF08" stroke="#84FD0B"/>
<g filter="url(#filter0_d_33_2)">
<mask id="path-2-outside-1_33_2" maskUnits="userSpaceOnUse" x="40" y="26" width="133" height="27" fill="black">
<rect fill="white" x="40" y="26" width="133" height="27"/>
<path d="M58.1374 37.0866C57.8178 38.9983 57.1964 40.6378 56.2731 42.005C55.3557 43.3722 54.2312 44.4227 52.8995 45.1566C51.5737 45.8846 50.1415 46.2486 48.6026 46.2486C46.9987 46.2486 45.6286 45.8668 44.4922 45.1033C43.3617 44.3339 42.5509 43.242 42.0597 41.8274C41.5684 40.407 41.4856 38.7143 41.8111 36.7493C42.1307 34.8376 42.7492 33.1982 43.6665 31.831C44.5898 30.4579 45.7173 29.4044 47.049 28.6705C48.3866 27.9366 49.8307 27.5696 51.3814 27.5696C52.9735 27.5696 54.3318 27.9543 55.4563 28.7237C56.5868 29.4872 57.3976 30.5821 57.8888 32.0085C58.3801 33.429 58.463 35.1217 58.1374 37.0866ZM55.4652 36.7493C55.7079 35.2992 55.6783 34.08 55.3764 33.0916C55.0805 32.0973 54.5745 31.3456 53.8583 30.8366C53.1422 30.3277 52.2781 30.0732 51.266 30.0732C50.1888 30.0732 49.1797 30.3454 48.2386 30.8899C47.3035 31.4344 46.5045 32.2275 45.8416 33.2692C45.1787 34.3108 44.726 35.5833 44.4833 37.0866C44.2347 38.5367 44.2614 39.7559 44.5632 40.7443C44.8651 41.7327 45.3741 42.4814 46.0902 42.9904C46.8123 43.4935 47.6793 43.745 48.6914 43.745C49.7627 43.745 50.7659 43.4757 51.701 42.9371C52.642 42.3926 53.444 41.6025 54.1069 40.5668C54.7698 39.5251 55.2225 38.2526 55.4652 36.7493ZM60.9983 34.6541L61.3712 32.3636H72.8769L72.504 34.6541H68.0562L66.1919 46H63.5906L65.455 34.6541H60.9983ZM73.4206 46L75.6934 32.3636H86.8084L84.5357 46H81.9434L83.8343 34.6541H77.8951L76.0041 46H73.4206ZM87.2656 51.1136L90.4084 32.3636H93.0007L92.6367 34.5742H92.8587C93.0599 34.2901 93.3321 33.9616 93.6754 33.5888C94.0246 33.2159 94.4833 32.8904 95.0515 32.6122C95.6197 32.3281 96.3269 32.1861 97.1733 32.1861C98.2741 32.1861 99.2063 32.4643 99.9698 33.0206C100.733 33.5769 101.278 34.3789 101.603 35.4265C101.929 36.4741 101.97 37.7347 101.728 39.2085C101.485 40.6822 101.029 41.9458 100.36 42.9993C99.6916 44.0469 98.8808 44.8548 97.9279 45.4229C96.9809 45.9852 95.9541 46.2663 94.8473 46.2663C94.0187 46.2663 93.3647 46.1272 92.8853 45.8491C92.4118 45.5709 92.0597 45.2454 91.8288 44.8725C91.598 44.4996 91.4234 44.1682 91.305 43.8782H91.1452L89.9379 51.1136H87.2656ZM91.8732 39.1818C91.7193 40.1406 91.7193 40.9811 91.8732 41.7031C92.0271 42.4252 92.3349 42.9904 92.7965 43.3988C93.2641 43.8013 93.8796 44.0025 94.6431 44.0025C95.4362 44.0025 96.1316 43.7924 96.7294 43.3722C97.3272 42.946 97.8214 42.369 98.212 41.641C98.6085 40.913 98.8838 40.0933 99.0376 39.1818C99.1856 38.2822 99.1826 37.4743 99.0288 36.7582C98.8808 36.042 98.576 35.4768 98.1143 35.0625C97.6527 34.6482 97.0224 34.4411 96.2234 34.4411C95.448 34.4411 94.7615 34.6393 94.1637 35.0359C93.5719 35.4324 93.0806 35.9858 92.69 36.696C92.2994 37.4062 92.0271 38.2348 91.8732 39.1818ZM107.496 46.3018C106.632 46.3018 105.877 46.142 105.232 45.8224C104.587 45.4969 104.111 45.0264 103.803 44.4109C103.495 43.7953 103.415 43.0407 103.563 42.147C103.693 41.3776 103.948 40.7443 104.327 40.2472C104.711 39.75 105.179 39.3564 105.729 39.0664C106.28 38.7705 106.878 38.5485 107.523 38.4006C108.168 38.2526 108.819 38.1431 109.476 38.0721C110.304 37.9774 110.976 37.8975 111.491 37.8324C112.012 37.7673 112.402 37.6667 112.663 37.5305C112.923 37.3885 113.08 37.1577 113.133 36.8381V36.7759C113.258 36.0065 113.145 35.4087 112.796 34.9826C112.453 34.5505 111.855 34.3345 111.003 34.3345C110.115 34.3345 109.369 34.5298 108.766 34.9205C108.168 35.3111 107.727 35.7491 107.443 36.2344L105.063 35.6662C105.49 34.8376 106.031 34.1688 106.688 33.6598C107.351 33.1449 108.076 32.772 108.863 32.5412C109.65 32.3045 110.455 32.1861 111.278 32.1861C111.822 32.1861 112.388 32.2512 112.974 32.3814C113.56 32.5057 114.092 32.7365 114.572 33.0739C115.057 33.4112 115.418 33.8936 115.655 34.521C115.891 35.1424 115.927 35.9503 115.761 36.9446L114.261 46H111.669L111.988 44.1357H111.882C111.657 44.4789 111.343 44.8163 110.941 45.1477C110.544 45.4792 110.059 45.7544 109.485 45.9734C108.911 46.1924 108.248 46.3018 107.496 46.3018ZM108.402 44.1712C109.141 44.1712 109.795 44.0262 110.364 43.7362C110.938 43.4461 111.402 43.0674 111.757 42.5998C112.112 42.1263 112.334 41.6203 112.423 41.0817L112.716 39.3239C112.604 39.4186 112.405 39.5044 112.121 39.5813C111.843 39.6583 111.53 39.7263 111.18 39.7855C110.831 39.8447 110.488 39.895 110.15 39.9364C109.819 39.9779 109.544 40.0163 109.325 40.0518C108.804 40.117 108.316 40.2264 107.86 40.3803C107.41 40.5342 107.034 40.7562 106.733 41.0462C106.431 41.3303 106.241 41.709 106.164 42.1825C106.058 42.8395 106.215 43.3366 106.635 43.674C107.061 44.0054 107.65 44.1712 108.402 44.1712ZM117.805 46L120.078 32.3636H125.724C127.257 32.3636 128.42 32.6921 129.213 33.3491C130.012 34.006 130.317 34.8909 130.128 36.0036C129.998 36.8085 129.637 37.4447 129.045 37.9123C128.453 38.3739 127.731 38.6847 126.879 38.8445C127.47 38.9155 127.997 39.099 128.459 39.3949C128.92 39.6849 129.264 40.0785 129.489 40.5756C129.714 41.0669 129.773 41.6499 129.666 42.3246C129.542 43.0466 129.246 43.6858 128.778 44.2422C128.311 44.7926 127.698 45.2247 126.941 45.5384C126.189 45.8461 125.316 46 124.322 46H117.805ZM120.673 43.7805H124.695C125.357 43.7805 125.902 43.6237 126.328 43.31C126.754 42.9904 127.006 42.5643 127.083 42.0316C127.195 41.3924 127.092 40.8923 126.772 40.5312C126.458 40.1702 125.979 39.9897 125.334 39.9897H121.312L120.673 43.7805ZM121.623 38.0455H124.801C125.298 38.0455 125.739 37.9744 126.124 37.8324C126.509 37.6903 126.819 37.4891 127.056 37.2287C127.293 36.9624 127.441 36.6487 127.5 36.2876C127.595 35.7668 127.447 35.3584 127.056 35.0625C126.671 34.7607 126.103 34.6097 125.352 34.6097H122.2L121.623 38.0455ZM135.197 42.2802L142.85 32.3636H145.708L143.436 46H140.835L142.477 36.0746L134.842 46H131.966L134.238 32.3636H136.831L135.197 42.2802ZM147.204 34.6541L147.577 32.3636H159.083L158.71 34.6541H154.262L152.398 46H149.797L151.661 34.6541H147.204ZM163.116 37.0511H167.084C168.747 37.0511 169.958 37.4654 170.715 38.294C171.479 39.1226 171.757 40.1909 171.55 41.4989C171.402 42.3512 171.067 43.1177 170.546 43.7983C170.026 44.4789 169.345 45.0175 168.505 45.4141C167.67 45.8047 166.696 46 165.584 46H159.627L161.899 32.3636H164.492L162.601 43.7095H165.957C166.726 43.7095 167.389 43.5112 167.945 43.1147C168.507 42.7182 168.836 42.2062 168.931 41.5788C169.043 40.916 168.886 40.3774 168.46 39.9631C168.04 39.5488 167.454 39.3416 166.702 39.3416H162.743L163.116 37.0511Z"/>
</mask>
<path d="M58.1374 37.0866C57.8178 38.9983 57.1964 40.6378 56.2731 42.005C55.3557 43.3722 54.2312 44.4227 52.8995 45.1566C51.5737 45.8846 50.1415 46.2486 48.6026 46.2486C46.9987 46.2486 45.6286 45.8668 44.4922 45.1033C43.3617 44.3339 42.5509 43.242 42.0597 41.8274C41.5684 40.407 41.4856 38.7143 41.8111 36.7493C42.1307 34.8376 42.7492 33.1982 43.6665 31.831C44.5898 30.4579 45.7173 29.4044 47.049 28.6705C48.3866 27.9366 49.8307 27.5696 51.3814 27.5696C52.9735 27.5696 54.3318 27.9543 55.4563 28.7237C56.5868 29.4872 57.3976 30.5821 57.8888 32.0085C58.3801 33.429 58.463 35.1217 58.1374 37.0866ZM55.4652 36.7493C55.7079 35.2992 55.6783 34.08 55.3764 33.0916C55.0805 32.0973 54.5745 31.3456 53.8583 30.8366C53.1422 30.3277 52.2781 30.0732 51.266 30.0732C50.1888 30.0732 49.1797 30.3454 48.2386 30.8899C47.3035 31.4344 46.5045 32.2275 45.8416 33.2692C45.1787 34.3108 44.726 35.5833 44.4833 37.0866C44.2347 38.5367 44.2614 39.7559 44.5632 40.7443C44.8651 41.7327 45.3741 42.4814 46.0902 42.9904C46.8123 43.4935 47.6793 43.745 48.6914 43.745C49.7627 43.745 50.7659 43.4757 51.701 42.9371C52.642 42.3926 53.444 41.6025 54.1069 40.5668C54.7698 39.5251 55.2225 38.2526 55.4652 36.7493ZM60.9983 34.6541L61.3712 32.3636H72.8769L72.504 34.6541H68.0562L66.1919 46H63.5906L65.455 34.6541H60.9983ZM73.4206 46L75.6934 32.3636H86.8084L84.5357 46H81.9434L83.8343 34.6541H77.8951L76.0041 46H73.4206ZM87.2656 51.1136L90.4084 32.3636H93.0007L92.6367 34.5742H92.8587C93.0599 34.2901 93.3321 33.9616 93.6754 33.5888C94.0246 33.2159 94.4833 32.8904 95.0515 32.6122C95.6197 32.3281 96.3269 32.1861 97.1733 32.1861C98.2741 32.1861 99.2063 32.4643 99.9698 33.0206C100.733 33.5769 101.278 34.3789 101.603 35.4265C101.929 36.4741 101.97 37.7347 101.728 39.2085C101.485 40.6822 101.029 41.9458 100.36 42.9993C99.6916 44.0469 98.8808 44.8548 97.9279 45.4229C96.9809 45.9852 95.9541 46.2663 94.8473 46.2663C94.0187 46.2663 93.3647 46.1272 92.8853 45.8491C92.4118 45.5709 92.0597 45.2454 91.8288 44.8725C91.598 44.4996 91.4234 44.1682 91.305 43.8782H91.1452L89.9379 51.1136H87.2656ZM91.8732 39.1818C91.7193 40.1406 91.7193 40.9811 91.8732 41.7031C92.0271 42.4252 92.3349 42.9904 92.7965 43.3988C93.2641 43.8013 93.8796 44.0025 94.6431 44.0025C95.4362 44.0025 96.1316 43.7924 96.7294 43.3722C97.3272 42.946 97.8214 42.369 98.212 41.641C98.6085 40.913 98.8838 40.0933 99.0376 39.1818C99.1856 38.2822 99.1826 37.4743 99.0288 36.7582C98.8808 36.042 98.576 35.4768 98.1143 35.0625C97.6527 34.6482 97.0224 34.4411 96.2234 34.4411C95.448 34.4411 94.7615 34.6393 94.1637 35.0359C93.5719 35.4324 93.0806 35.9858 92.69 36.696C92.2994 37.4062 92.0271 38.2348 91.8732 39.1818ZM107.496 46.3018C106.632 46.3018 105.877 46.142 105.232 45.8224C104.587 45.4969 104.111 45.0264 103.803 44.4109C103.495 43.7953 103.415 43.0407 103.563 42.147C103.693 41.3776 103.948 40.7443 104.327 40.2472C104.711 39.75 105.179 39.3564 105.729 39.0664C106.28 38.7705 106.878 38.5485 107.523 38.4006C108.168 38.2526 108.819 38.1431 109.476 38.0721C110.304 37.9774 110.976 37.8975 111.491 37.8324C112.012 37.7673 112.402 37.6667 112.663 37.5305C112.923 37.3885 113.08 37.1577 113.133 36.8381V36.7759C113.258 36.0065 113.145 35.4087 112.796 34.9826C112.453 34.5505 111.855 34.3345 111.003 34.3345C110.115 34.3345 109.369 34.5298 108.766 34.9205C108.168 35.3111 107.727 35.7491 107.443 36.2344L105.063 35.6662C105.49 34.8376 106.031 34.1688 106.688 33.6598C107.351 33.1449 108.076 32.772 108.863 32.5412C109.65 32.3045 110.455 32.1861 111.278 32.1861C111.822 32.1861 112.388 32.2512 112.974 32.3814C113.56 32.5057 114.092 32.7365 114.572 33.0739C115.057 33.4112 115.418 33.8936 115.655 34.521C115.891 35.1424 115.927 35.9503 115.761 36.9446L114.261 46H111.669L111.988 44.1357H111.882C111.657 44.4789 111.343 44.8163 110.941 45.1477C110.544 45.4792 110.059 45.7544 109.485 45.9734C108.911 46.1924 108.248 46.3018 107.496 46.3018ZM108.402 44.1712C109.141 44.1712 109.795 44.0262 110.364 43.7362C110.938 43.4461 111.402 43.0674 111.757 42.5998C112.112 42.1263 112.334 41.6203 112.423 41.0817L112.716 39.3239C112.604 39.4186 112.405 39.5044 112.121 39.5813C111.843 39.6583 111.53 39.7263 111.18 39.7855C110.831 39.8447 110.488 39.895 110.15 39.9364C109.819 39.9779 109.544 40.0163 109.325 40.0518C108.804 40.117 108.316 40.2264 107.86 40.3803C107.41 40.5342 107.034 40.7562 106.733 41.0462C106.431 41.3303 106.241 41.709 106.164 42.1825C106.058 42.8395 106.215 43.3366 106.635 43.674C107.061 44.0054 107.65 44.1712 108.402 44.1712ZM117.805 46L120.078 32.3636H125.724C127.257 32.3636 128.42 32.6921 129.213 33.3491C130.012 34.006 130.317 34.8909 130.128 36.0036C129.998 36.8085 129.637 37.4447 129.045 37.9123C128.453 38.3739 127.731 38.6847 126.879 38.8445C127.47 38.9155 127.997 39.099 128.459 39.3949C128.92 39.6849 129.264 40.0785 129.489 40.5756C129.714 41.0669 129.773 41.6499 129.666 42.3246C129.542 43.0466 129.246 43.6858 128.778 44.2422C128.311 44.7926 127.698 45.2247 126.941 45.5384C126.189 45.8461 125.316 46 124.322 46H117.805ZM120.673 43.7805H124.695C125.357 43.7805 125.902 43.6237 126.328 43.31C126.754 42.9904 127.006 42.5643 127.083 42.0316C127.195 41.3924 127.092 40.8923 126.772 40.5312C126.458 40.1702 125.979 39.9897 125.334 39.9897H121.312L120.673 43.7805ZM121.623 38.0455H124.801C125.298 38.0455 125.739 37.9744 126.124 37.8324C126.509 37.6903 126.819 37.4891 127.056 37.2287C127.293 36.9624 127.441 36.6487 127.5 36.2876C127.595 35.7668 127.447 35.3584 127.056 35.0625C126.671 34.7607 126.103 34.6097 125.352 34.6097H122.2L121.623 38.0455ZM135.197 42.2802L142.85 32.3636H145.708L143.436 46H140.835L142.477 36.0746L134.842 46H131.966L134.238 32.3636H136.831L135.197 42.2802ZM147.204 34.6541L147.577 32.3636H159.083L158.71 34.6541H154.262L152.398 46H149.797L151.661 34.6541H147.204ZM163.116 37.0511H167.084C168.747 37.0511 169.958 37.4654 170.715 38.294C171.479 39.1226 171.757 40.1909 171.55 41.4989C171.402 42.3512 171.067 43.1177 170.546 43.7983C170.026 44.4789 169.345 45.0175 168.505 45.4141C167.67 45.8047 166.696 46 165.584 46H159.627L161.899 32.3636H164.492L162.601 43.7095H165.957C166.726 43.7095 167.389 43.5112 167.945 43.1147C168.507 42.7182 168.836 42.2062 168.931 41.5788C169.043 40.916 168.886 40.3774 168.46 39.9631C168.04 39.5488 167.454 39.3416 166.702 39.3416H162.743L163.116 37.0511Z" fill="white"/>
<path d="M58.1374 37.0866L59.1237 37.2515L59.124 37.2501L58.1374 37.0866ZM56.2731 42.005L55.4444 41.4453L55.4427 41.4478L56.2731 42.005ZM52.8995 45.1566L53.3808 46.0332L53.3822 46.0324L52.8995 45.1566ZM44.4922 45.1033L43.9295 45.93L43.9345 45.9334L44.4922 45.1033ZM42.0597 41.8274L41.1146 42.1543L41.115 42.1555L42.0597 41.8274ZM41.8111 36.7493L40.8248 36.5844L40.8245 36.5859L41.8111 36.7493ZM43.6665 31.831L42.8367 31.273L42.8362 31.2738L43.6665 31.831ZM47.049 28.6705L46.568 27.7937L46.5663 27.7946L47.049 28.6705ZM55.4563 28.7237L54.8916 29.549L54.8966 29.5524L55.4563 28.7237ZM57.8888 32.0085L56.9434 32.3342L56.9438 32.3354L57.8888 32.0085ZM55.4652 36.7493L54.4789 36.5842L54.478 36.5899L55.4652 36.7493ZM55.3764 33.0916L54.4179 33.3769L54.42 33.3837L55.3764 33.0916ZM53.8583 30.8366L54.4376 30.0216L54.4376 30.0216L53.8583 30.8366ZM48.2386 30.8899L47.7378 30.0244L47.7354 30.0257L48.2386 30.8899ZM45.8416 33.2692L44.998 32.7323L44.998 32.7323L45.8416 33.2692ZM44.4833 37.0866L45.469 37.2556L45.4705 37.246L44.4833 37.0866ZM44.5632 40.7443L45.5196 40.4522L45.5196 40.4522L44.5632 40.7443ZM46.0902 42.9904L45.5108 43.8055L45.5185 43.8109L46.0902 42.9904ZM51.701 42.9371L52.2001 43.8037L52.2018 43.8027L51.701 42.9371ZM54.1069 40.5668L54.9492 41.1058L54.9506 41.1036L54.1069 40.5668ZM57.1511 36.9218C56.8511 38.7166 56.2746 40.2159 55.4444 41.4453L57.1018 42.5646C58.1181 41.0597 58.7846 39.2801 59.1237 37.2515L57.1511 36.9218ZM55.4427 41.4478C54.6066 42.6938 53.5975 43.6301 52.4168 44.2808L53.3822 46.0324C54.8649 45.2153 56.1048 44.0505 57.1035 42.5622L55.4427 41.4478ZM52.4182 44.2801C51.2426 44.9256 49.9762 45.2486 48.6026 45.2486V47.2486C50.3067 47.2486 51.9049 46.8436 53.3808 46.0332L52.4182 44.2801ZM48.6026 45.2486C47.1625 45.2486 45.9946 44.908 45.0499 44.2733L43.9345 45.9334C45.2625 46.8256 46.8349 47.2486 48.6026 47.2486V45.2486ZM45.0549 44.2767C44.119 43.6397 43.4322 42.7313 43.0043 41.4994L41.115 42.1555C41.6696 43.7526 42.6045 45.0282 43.9295 45.93L45.0549 44.2767ZM43.0047 41.5006C42.5828 40.2804 42.4908 38.7649 42.7976 36.9127L40.8245 36.5859C40.4803 38.6636 40.5541 40.5335 41.1146 42.1543L43.0047 41.5006ZM42.7974 36.9142C43.0976 35.1183 43.6717 33.6181 44.4969 32.3882L42.8362 31.2738C41.8267 32.7782 41.1637 34.5569 40.8248 36.5844L42.7974 36.9142ZM44.4964 32.389C45.3389 31.136 46.3514 30.1967 47.5317 29.5463L46.5663 27.7946C45.0833 28.612 43.8408 29.7797 42.8367 31.273L44.4964 32.389ZM47.53 29.5472C48.7177 28.8955 49.996 28.5696 51.3814 28.5696V26.5696C49.6654 26.5696 48.0555 26.9776 46.568 27.7937L47.53 29.5472ZM51.3814 28.5696C52.8068 28.5696 53.96 28.9116 54.8916 29.549L56.021 27.8984C54.7036 26.997 53.1402 26.5696 51.3814 26.5696V28.5696ZM54.8966 29.5524C55.8282 30.1816 56.5149 31.09 56.9434 32.3341L58.8343 31.6829C58.2804 30.0743 57.3453 28.7928 56.016 27.895L54.8966 29.5524ZM56.9438 32.3354C57.3657 33.5555 57.4577 35.0711 57.1509 36.9232L59.124 37.2501C59.4682 35.1723 59.3944 33.3025 58.8339 31.6817L56.9438 32.3354ZM56.4515 36.9143C56.7096 35.3719 56.6948 33.985 56.3328 32.7995L54.42 33.3837C54.6617 34.175 54.7061 35.2266 54.4789 36.5842L56.4515 36.9143ZM56.3349 32.8064C55.9872 31.6382 55.3672 30.6822 54.4376 30.0216L53.279 31.6517C53.7817 32.009 54.1738 32.5564 54.418 33.3769L56.3349 32.8064ZM54.4376 30.0216C53.5275 29.3747 52.453 29.0732 51.266 29.0732V31.0732C52.1031 31.0732 52.7569 31.2806 53.279 31.6517L54.4376 30.0216ZM51.266 29.0732C50.0112 29.0732 48.8296 29.3926 47.7378 30.0244L48.7395 31.7555C49.5298 31.2982 50.3664 31.0732 51.266 31.0732V29.0732ZM47.7354 30.0257C46.644 30.6613 45.7344 31.575 44.998 32.7323L46.6853 33.8061C47.2746 32.88 47.963 32.2076 48.7418 31.7541L47.7354 30.0257ZM44.998 32.7323C44.2471 33.9122 43.7555 35.3201 43.4961 36.9273L45.4705 37.246C45.6964 35.8465 46.1104 34.7095 46.6853 33.8061L44.998 32.7323ZM43.4977 36.9177C43.2332 38.4607 43.2442 39.8491 43.6068 41.0364L45.5196 40.4522C45.2785 39.6627 45.2363 38.6127 45.4689 37.2556L43.4977 36.9177ZM43.6068 41.0364C43.9614 42.1973 44.5844 43.147 45.5109 43.8055L46.6695 42.1753C46.1637 41.8158 45.7688 41.2681 45.5196 40.4522L43.6068 41.0364ZM45.5185 43.8109C46.4326 44.4477 47.5066 44.745 48.6914 44.745V42.745C47.8521 42.745 47.1919 42.5392 46.6619 42.1699L45.5185 43.8109ZM48.6914 44.745C49.9392 44.745 51.1143 44.429 52.2001 43.8037L51.2019 42.0706C50.4174 42.5224 49.5861 42.745 48.6914 42.745V44.745ZM52.2018 43.8027C53.2983 43.1682 54.2116 42.2583 54.9492 41.1058L53.2646 40.0277C52.6764 40.9467 51.9858 41.617 51.2002 42.0716L52.2018 43.8027ZM54.9506 41.1036C55.7014 39.9238 56.193 38.5158 56.4524 36.9086L54.478 36.5899C54.2521 37.9894 53.8382 39.1264 53.2632 40.0299L54.9506 41.1036ZM60.9983 34.6541L60.0113 34.4934L59.8224 35.6541H60.9983V34.6541ZM61.3712 32.3636V31.3636H60.5208L60.3842 32.203L61.3712 32.3636ZM72.8769 32.3636L73.8639 32.5243L74.0528 31.3636H72.8769V32.3636ZM72.504 34.6541V35.6541H73.3544L73.491 34.8148L72.504 34.6541ZM68.0562 34.6541V33.6541H67.2071L67.0694 34.492L68.0562 34.6541ZM66.1919 46V47H67.0409L67.1786 46.1621L66.1919 46ZM63.5906 46L62.6039 45.8379L62.4129 47H63.5906V46ZM65.455 34.6541L66.4418 34.8163L66.6327 33.6541H65.455V34.6541ZM61.9853 34.8148L62.3582 32.5243L60.3842 32.203L60.0113 34.4934L61.9853 34.8148ZM61.3712 33.3636H72.8769V31.3636H61.3712V33.3636ZM71.8899 32.203L71.517 34.4934L73.491 34.8148L73.8639 32.5243L71.8899 32.203ZM72.504 33.6541H68.0562V35.6541H72.504V33.6541ZM67.0694 34.492L65.2051 45.8379L67.1786 46.1621L69.043 34.8163L67.0694 34.492ZM66.1919 45H63.5906V47H66.1919V45ZM64.5774 46.1621L66.4418 34.8163L64.4682 34.492L62.6039 45.8379L64.5774 46.1621ZM65.455 33.6541H60.9983V35.6541H65.455V33.6541ZM73.4206 46L72.4342 45.8356L72.2402 47H73.4206V46ZM75.6934 32.3636V31.3636H74.8462L74.707 32.1992L75.6934 32.3636ZM86.8084 32.3636L87.7948 32.528L87.9889 31.3636H86.8084V32.3636ZM84.5357 46V47H85.3828L85.5221 46.1644L84.5357 46ZM81.9434 46L80.957 45.8356L80.7629 47H81.9434V46ZM83.8343 34.6541L84.8207 34.8185L85.0148 33.6541H83.8343V34.6541ZM77.8951 34.6541V33.6541H77.0479L76.9087 34.4897L77.8951 34.6541ZM76.0041 46V47H76.8512L76.9905 46.1644L76.0041 46ZM74.407 46.1644L76.6798 32.528L74.707 32.1992L72.4342 45.8356L74.407 46.1644ZM75.6934 33.3636H86.8084V31.3636H75.6934V33.3636ZM85.822 32.1992L83.5493 45.8356L85.5221 46.1644L87.7948 32.528L85.822 32.1992ZM84.5357 45H81.9434V47H84.5357V45ZM82.9298 46.1644L84.8207 34.8185L82.8479 34.4897L80.957 45.8356L82.9298 46.1644ZM83.8343 33.6541H77.8951V35.6541H83.8343V33.6541ZM76.9087 34.4897L75.0177 45.8356L76.9905 46.1644L78.8815 34.8185L76.9087 34.4897ZM76.0041 45H73.4206V47H76.0041V45ZM87.2656 51.1136L86.2794 50.9483L86.0841 52.1136H87.2656V51.1136ZM90.4084 32.3636V31.3636H89.562L89.4221 32.1983L90.4084 32.3636ZM93.0007 32.3636L93.9874 32.5261L94.1788 31.3636H93.0007V32.3636ZM92.6367 34.5742L91.65 34.4117L91.4586 35.5742H92.6367V34.5742ZM92.8587 34.5742V35.5742H93.3758L93.6747 35.1522L92.8587 34.5742ZM93.6754 33.5888L92.9455 32.9052L92.9397 32.9115L93.6754 33.5888ZM95.0515 32.6122L95.4912 33.5104L95.4987 33.5066L95.0515 32.6122ZM99.9698 33.0206L99.3809 33.8288L99.3809 33.8288L99.9698 33.0206ZM101.603 35.4265L100.648 35.7232L100.648 35.7232L101.603 35.4265ZM101.728 39.2085L100.741 39.046L100.741 39.046L101.728 39.2085ZM100.36 42.9993L101.203 43.5374L101.205 43.5352L100.36 42.9993ZM97.9279 45.4229L98.4385 46.2828L98.4401 46.2818L97.9279 45.4229ZM92.8853 45.8491L92.3787 46.7113L92.3834 46.714L92.8853 45.8491ZM91.8288 44.8725L92.6791 44.3462L92.6791 44.3462L91.8288 44.8725ZM91.305 43.8782L92.2309 43.5003L91.977 42.8782H91.305V43.8782ZM91.1452 43.8782V42.8782H90.2983L90.1589 43.7136L91.1452 43.8782ZM89.9379 51.1136V52.1136H90.7848L90.9242 51.2782L89.9379 51.1136ZM91.8732 39.1818L90.8862 39.0214L90.8859 39.0234L91.8732 39.1818ZM91.8732 41.7031L90.8952 41.9116L90.8952 41.9116L91.8732 41.7031ZM92.7965 43.3988L92.1339 44.1479L92.1441 44.1567L92.7965 43.3988ZM96.7294 43.3722L97.3045 44.1903L97.3099 44.1864L96.7294 43.3722ZM98.212 41.641L97.3338 41.1626L97.3308 41.1682L98.212 41.641ZM99.0376 39.1818L100.024 39.3483L100.024 39.3441L99.0376 39.1818ZM99.0288 36.7582L98.0494 36.9605L98.0511 36.9682L99.0288 36.7582ZM98.1143 35.0625L97.4464 35.8067L97.4464 35.8067L98.1143 35.0625ZM94.1637 35.0359L93.6109 34.2025L93.6071 34.2051L94.1637 35.0359ZM92.69 36.696L93.5662 37.1779L93.5662 37.1779L92.69 36.696ZM88.2519 51.2789L91.3946 32.5289L89.4221 32.1983L86.2794 50.9483L88.2519 51.2789ZM90.4084 33.3636H93.0007V31.3636H90.4084V33.3636ZM92.014 32.2012L91.65 34.4117L93.6234 34.7367L93.9874 32.5261L92.014 32.2012ZM92.6367 35.5742H92.8587V33.5742H92.6367V35.5742ZM93.6747 35.1522C93.843 34.9147 94.085 34.6204 94.4111 34.2661L92.9397 32.9115C92.5793 33.3029 92.2768 33.6656 92.0426 33.9962L93.6747 35.1522ZM94.4053 34.2723C94.6545 34.0063 95.0069 33.7475 95.4912 33.5104L94.6118 31.7141C93.9597 32.0333 93.3948 32.4255 92.9455 32.9052L94.4053 34.2723ZM95.4987 33.5066C95.8898 33.3111 96.4329 33.1861 97.1733 33.1861V31.1861C96.221 31.1861 95.3496 31.3451 94.6043 31.7178L95.4987 33.5066ZM97.1733 33.1861C98.0987 33.1861 98.8156 33.4168 99.3809 33.8288L100.559 32.2124C99.5971 31.5117 98.4496 31.1861 97.1733 31.1861V33.1861ZM99.3809 33.8288C99.9435 34.2388 100.376 34.8467 100.648 35.7232L102.558 35.1298C102.18 33.9111 101.523 32.9151 100.559 32.2124L99.3809 33.8288ZM100.648 35.7232C100.914 36.5786 100.967 37.6731 100.741 39.046L102.714 39.3709C102.974 37.7964 102.944 36.3696 102.558 35.1298L100.648 35.7232ZM100.741 39.046C100.516 40.4125 100.1 41.5435 99.5162 42.4633L101.205 43.5352C101.958 42.348 102.454 40.9518 102.714 39.3709L100.741 39.046ZM99.5176 42.4612C98.9224 43.3935 98.2196 44.0847 97.4158 44.564L98.4401 46.2818C99.542 45.6248 100.461 44.7003 101.203 43.5374L99.5176 42.4612ZM97.4174 44.5631C96.6257 45.0331 95.7753 45.2663 94.8473 45.2663V47.2663C96.1328 47.2663 97.3362 46.9373 98.4385 46.2828L97.4174 44.5631ZM94.8473 45.2663C94.1141 45.2663 93.6568 45.1406 93.3872 44.9841L92.3834 46.714C93.0726 47.1139 93.9233 47.2663 94.8473 47.2663V45.2663ZM93.3918 44.9869C93.0239 44.7707 92.8054 44.5502 92.6791 44.3462L90.9786 45.3989C91.3139 45.9405 91.7998 46.3711 92.3787 46.7113L93.3918 44.9869ZM92.6791 44.3462C92.4669 44.0034 92.3218 43.723 92.2309 43.5003L90.3792 44.2561C90.525 44.6134 90.7291 44.9959 90.9786 45.3989L92.6791 44.3462ZM91.305 42.8782H91.1452V44.8782H91.305V42.8782ZM90.1589 43.7136L88.9515 50.949L90.9242 51.2782L92.1316 44.0428L90.1589 43.7136ZM89.9379 50.1136H87.2656V52.1136H89.9379V50.1136ZM90.8859 39.0234C90.7183 40.0676 90.7089 41.0374 90.8952 41.9116L92.8513 41.4947C92.7298 40.9247 92.7204 40.2136 92.8606 39.3403L90.8859 39.0234ZM90.8952 41.9116C91.0846 42.8004 91.4822 43.5713 92.1339 44.1478L93.4591 42.6498C93.1875 42.4095 92.9696 42.05 92.8513 41.4947L90.8952 41.9116ZM92.1441 44.1567C92.8334 44.7499 93.6992 45.0025 94.6431 45.0025V43.0025C94.0601 43.0025 93.6948 42.8526 93.4489 42.6409L92.1441 44.1567ZM94.6431 45.0025C95.6236 45.0025 96.5238 44.7391 97.3045 44.1902L96.1543 42.5541C95.7395 42.8457 95.2488 43.0025 94.6431 43.0025V45.0025ZM97.3099 44.1864C98.0477 43.6605 98.6391 42.9601 99.0932 42.1138L97.3308 41.1682C97.0037 41.7779 96.6067 42.2316 96.1489 42.5579L97.3099 44.1864ZM99.0902 42.1193C99.5454 41.2836 99.8535 40.3565 100.024 39.3483L98.0516 39.0153C97.914 39.83 97.6717 40.5424 97.3338 41.1626L99.0902 42.1193ZM100.024 39.3441C100.188 38.3501 100.192 37.4126 100.006 36.5481L98.0511 36.9682C98.1731 37.536 98.1833 38.2143 98.0509 39.0195L100.024 39.3441ZM100.008 36.5558C99.8249 35.6691 99.43 34.8996 98.7823 34.3183L97.4464 35.8067C97.722 36.054 97.9367 36.415 98.0494 36.9605L100.008 36.5558ZM98.7823 34.3183C98.0892 33.6962 97.1958 33.4411 96.2234 33.4411V35.4411C96.8489 35.4411 97.2162 35.6002 97.4464 35.8067L98.7823 34.3183ZM96.2234 33.4411C95.268 33.4411 94.3859 33.6885 93.6109 34.2025L94.7165 35.8692C95.1371 35.5902 95.6281 35.4411 96.2234 35.4411V33.4411ZM93.6071 34.2051C92.865 34.7023 92.2708 35.3832 91.8138 36.2141L93.5662 37.1779C93.8904 36.5884 94.2787 36.1625 94.7203 35.8666L93.6071 34.2051ZM91.8138 36.2141C91.359 37.0409 91.0551 37.9819 90.8862 39.0214L92.8603 39.3422C92.9991 38.4878 93.2397 37.7716 93.5662 37.1779L91.8138 36.2141ZM105.232 45.8224L104.782 46.7153L104.788 46.7185L105.232 45.8224ZM103.803 44.4109L102.908 44.8581L102.908 44.8581L103.803 44.4109ZM103.563 42.147L102.577 41.9802L102.577 41.9837L103.563 42.147ZM104.327 40.2472L103.536 39.6352L103.531 39.6411L104.327 40.2472ZM105.729 39.0664L106.195 39.9511L106.203 39.9472L105.729 39.0664ZM107.523 38.4006L107.299 37.4259L107.523 38.4006ZM109.476 38.0721L109.583 39.0663L109.589 39.0656L109.476 38.0721ZM111.491 37.8324L111.367 36.8401L111.366 36.8403L111.491 37.8324ZM112.663 37.5305L113.126 38.4168L113.134 38.4127L113.142 38.4084L112.663 37.5305ZM113.133 36.8381L114.12 37.0025L114.133 36.9208V36.8381H113.133ZM113.133 36.7759L112.146 36.6165L112.133 36.6957V36.7759H113.133ZM112.796 34.9826L112.013 35.6047L112.018 35.6106L112.023 35.6164L112.796 34.9826ZM108.766 34.9205L108.222 34.0809L108.219 34.0833L108.766 34.9205ZM107.443 36.2344L107.21 37.207L107.931 37.3792L108.306 36.7396L107.443 36.2344ZM105.063 35.6662L104.174 35.2088L103.591 36.3427L104.831 36.6388L105.063 35.6662ZM106.688 33.6598L107.301 34.4503L107.302 34.4495L106.688 33.6598ZM108.863 32.5412L109.145 33.5008L109.151 33.4988L108.863 32.5412ZM112.974 32.3814L112.757 33.3576L112.766 33.3596L112.974 32.3814ZM114.572 33.0739L113.996 33.8917L114.001 33.895L114.572 33.0739ZM115.655 34.521L114.719 34.874L114.72 34.8769L115.655 34.521ZM115.761 36.9446L114.775 36.7802L114.775 36.7811L115.761 36.9446ZM114.261 46V47H115.109L115.247 46.1635L114.261 46ZM111.669 46L110.683 45.831L110.483 47H111.669V46ZM111.988 44.1357L112.974 44.3046L113.174 43.1357H111.988V44.1357ZM111.882 44.1357V43.1357H111.341L111.045 43.5876L111.882 44.1357ZM110.941 45.1477L110.305 44.3758L110.299 44.3804L110.941 45.1477ZM109.485 45.9734L109.128 45.039L109.128 45.039L109.485 45.9734ZM110.364 43.7362L109.913 42.8436L109.909 42.8455L110.364 43.7362ZM111.757 42.5998L112.554 43.2046L112.557 43.1998L111.757 42.5998ZM112.423 41.0817L111.437 40.9173L111.437 40.919L112.423 41.0817ZM112.716 39.3239L113.703 39.4883L114.149 36.81L112.072 38.559L112.716 39.3239ZM112.121 39.5813L111.86 38.6161L111.855 38.6175L112.121 39.5813ZM111.18 39.7855L111.347 40.7714L111.347 40.7714L111.18 39.7855ZM110.15 39.9364L110.029 38.9439L110.026 38.9442L110.15 39.9364ZM109.325 40.0518L109.449 41.0441L109.467 41.0419L109.485 41.039L109.325 40.0518ZM107.86 40.3803L107.54 39.4329L107.536 39.4342L107.86 40.3803ZM106.733 41.0462L107.418 41.7744L107.425 41.7673L106.733 41.0462ZM106.164 42.1825L105.177 42.0221L105.177 42.0225L106.164 42.1825ZM106.635 43.674L106.009 44.4538L106.015 44.4586L106.021 44.4634L106.635 43.674ZM107.496 45.3018C106.755 45.3018 106.158 45.1653 105.676 44.9264L104.788 46.7185C105.596 47.1188 106.508 47.3018 107.496 47.3018V45.3018ZM105.683 44.9297C105.219 44.6959 104.904 44.3767 104.697 43.9637L102.908 44.8581C103.317 45.676 103.955 46.298 104.782 46.7152L105.683 44.9297ZM104.697 43.9637C104.51 43.5886 104.425 43.0613 104.55 42.3104L102.577 41.9837C102.405 43.0201 102.48 44.0021 102.908 44.8581L104.697 43.9637ZM104.549 42.3139C104.659 41.6652 104.863 41.1934 105.122 40.8532L103.531 39.6411C103.033 40.2952 102.728 41.09 102.577 41.9802L104.549 42.3139ZM105.117 40.8591C105.416 40.4738 105.773 40.1738 106.195 39.9511L105.263 38.1817C104.585 38.5391 104.007 39.0262 103.536 39.6352L105.117 40.8591ZM106.203 39.9472C106.67 39.696 107.183 39.5044 107.746 39.3753L107.299 37.4259C106.572 37.5926 105.889 37.8449 105.256 38.1856L106.203 39.9472ZM107.746 39.3753C108.353 39.2361 108.965 39.1331 109.583 39.0663L109.368 37.0779C108.672 37.1531 107.982 37.2691 107.299 37.4259L107.746 39.3753ZM109.589 39.0656C110.42 38.9707 111.096 38.8903 111.616 38.8245L111.366 36.8403C110.856 36.9047 110.189 36.9841 109.362 37.0786L109.589 39.0656ZM111.615 38.8247C112.176 38.7545 112.707 38.6357 113.126 38.4168L112.2 36.6443C112.098 36.6977 111.847 36.7801 111.367 36.8401L111.615 38.8247ZM113.142 38.4084C113.699 38.1043 114.021 37.5932 114.12 37.0025L112.147 36.6737C112.144 36.6944 112.14 36.7037 112.14 36.7045C112.14 36.7049 112.142 36.6987 112.149 36.6889C112.156 36.6788 112.164 36.6694 112.172 36.6617C112.181 36.6542 112.186 36.6517 112.184 36.6526L113.142 38.4084ZM114.133 36.8381V36.7759H112.133V36.8381H114.133ZM114.121 36.9354C114.271 36.0041 114.166 35.0763 113.57 34.3488L112.023 35.6164C112.125 35.7412 112.244 36.009 112.146 36.6165L114.121 36.9354ZM113.579 34.3605C112.962 33.5833 111.992 33.3345 111.003 33.3345V35.3345C111.718 35.3345 111.944 35.5178 112.013 35.6047L113.579 34.3605ZM111.003 33.3345C109.968 33.3345 109.022 33.5634 108.222 34.0809L109.309 35.76C109.716 35.4963 110.262 35.3345 111.003 35.3345V33.3345ZM108.219 34.0833C107.525 34.5365 106.96 35.0792 106.58 35.7292L108.306 36.7396C108.493 36.4189 108.81 36.0857 109.313 35.7576L108.219 34.0833ZM107.675 35.2617L105.296 34.6935L104.831 36.6388L107.21 37.207L107.675 35.2617ZM105.953 36.1235C106.32 35.4091 106.772 34.8595 107.301 34.4503L106.076 32.8693C105.29 33.4781 104.659 34.2661 104.174 35.2088L105.953 36.1235ZM107.302 34.4495C107.868 34.0097 108.481 33.6955 109.145 33.5008L108.582 31.5816C107.671 31.8485 106.834 32.28 106.075 32.8701L107.302 34.4495ZM109.151 33.4988C109.845 33.2902 110.553 33.1861 111.278 33.1861V31.1861C110.358 31.1861 109.456 31.3187 108.575 31.5836L109.151 33.4988ZM111.278 33.1861C111.743 33.1861 112.235 33.2416 112.757 33.3576L113.191 31.4052C112.541 31.2608 111.902 31.1861 111.278 31.1861V33.1861ZM112.766 33.3596C113.223 33.4565 113.63 33.6338 113.996 33.8917L115.147 32.2561C114.555 31.8392 113.896 31.5549 113.181 31.4032L112.766 33.3596ZM114.001 33.895C114.298 34.1017 114.544 34.4096 114.719 34.874L116.59 34.1679C116.292 33.3776 115.816 32.7207 115.142 32.2528L114.001 33.895ZM114.72 34.8769C114.869 35.2683 114.925 35.8776 114.775 36.7802L116.748 37.109C116.929 36.023 116.914 35.0165 116.589 34.165L114.72 34.8769ZM114.775 36.7811L113.274 45.8365L115.247 46.1635L116.748 37.1081L114.775 36.7811ZM114.261 45H111.669V47H114.261V45ZM112.654 46.169L112.974 44.3046L111.003 43.9667L110.683 45.831L112.654 46.169ZM111.988 43.1357H111.882V45.1357H111.988V43.1357ZM111.045 43.5876C110.888 43.8274 110.65 44.092 110.305 44.3758L111.576 45.9197C112.037 45.5406 112.425 45.1305 112.718 44.6837L111.045 43.5876ZM110.299 44.3804C110.002 44.6288 109.618 44.8523 109.128 45.039L109.841 46.9077C110.5 46.6565 111.086 46.3295 111.582 45.915L110.299 44.3804ZM109.128 45.039C108.69 45.2061 108.152 45.3018 107.496 45.3018V47.3018C108.343 47.3018 109.131 47.1786 109.841 46.9077L109.128 45.039ZM108.402 45.1712C109.274 45.1712 110.088 44.9994 110.818 44.6268L109.909 42.8455C109.502 43.0529 109.009 43.1712 108.402 43.1712V45.1712ZM110.814 44.6287C111.511 44.2769 112.098 43.8043 112.554 43.2046L110.961 41.995C110.706 42.3304 110.364 42.6154 109.913 42.8436L110.814 44.6287ZM112.557 43.1998C113.001 42.6087 113.293 41.9547 113.41 41.2443L111.437 40.919C111.376 41.2858 111.224 41.6439 110.957 41.9998L112.557 43.1998ZM113.41 41.2461L113.703 39.4883L111.73 39.1595L111.437 40.9173L113.41 41.2461ZM112.072 38.559C112.097 38.5382 112.113 38.5289 112.113 38.5285C112.115 38.5279 112.106 38.5327 112.086 38.5415C112.043 38.5599 111.971 38.586 111.86 38.6161L112.383 40.5465C112.694 40.4622 113.072 40.3313 113.36 40.0888L112.072 38.559ZM111.855 38.6175C111.616 38.6836 111.336 38.7448 111.013 38.7996L111.347 40.7714C111.723 40.7078 112.071 40.6329 112.388 40.5451L111.855 38.6175ZM111.013 38.7996C110.678 38.8563 110.35 38.9044 110.029 38.9439L110.272 40.929C110.625 40.8856 110.984 40.8331 111.347 40.7714L111.013 38.7996ZM110.026 38.9442C109.688 38.9864 109.4 39.0266 109.165 39.0647L109.485 41.039C109.688 41.0061 109.95 40.9693 110.275 40.9287L110.026 38.9442ZM109.201 39.0596C108.619 39.1323 108.065 39.2557 107.54 39.4329L108.18 41.3278C108.567 41.1972 108.989 41.1016 109.449 41.0441L109.201 39.0596ZM107.536 39.4342C106.967 39.6288 106.46 39.9211 106.04 40.3251L107.425 41.7673C107.609 41.5912 107.853 41.4396 108.184 41.3265L107.536 39.4342ZM106.047 40.318C105.561 40.776 105.284 41.367 105.177 42.0221L107.151 42.3429C107.199 42.0511 107.301 41.8846 107.418 41.7744L106.047 40.318ZM105.177 42.0225C105.029 42.9368 105.238 43.835 106.009 44.4538L107.261 42.8942C107.191 42.8383 107.087 42.7422 107.151 42.3426L105.177 42.0225ZM106.021 44.4634C106.68 44.976 107.513 45.1712 108.402 45.1712V43.1712C107.787 43.1712 107.442 43.0349 107.249 42.8847L106.021 44.4634ZM117.805 46L116.819 45.8356L116.625 47H117.805V46ZM120.078 32.3636V31.3636H119.231L119.092 32.1992L120.078 32.3636ZM129.213 33.3491L128.575 34.1192L128.578 34.1215L129.213 33.3491ZM130.128 36.0036L129.142 35.8357L129.141 35.8439L130.128 36.0036ZM129.045 37.9123L129.66 38.7008L129.665 38.697L129.045 37.9123ZM126.879 38.8445L126.694 37.8616L126.759 39.8373L126.879 38.8445ZM128.459 39.3949L127.919 40.2368L127.927 40.2417L128.459 39.3949ZM129.489 40.5756L128.578 40.9878L128.579 40.9919L129.489 40.5756ZM129.666 42.3246L130.652 42.4942L130.654 42.4805L129.666 42.3246ZM128.778 44.2422L129.541 44.8896L129.544 44.8856L128.778 44.2422ZM126.941 45.5384L127.32 46.4638L127.323 46.4623L126.941 45.5384ZM120.673 43.7805L119.687 43.6143L119.49 44.7805H120.673V43.7805ZM126.328 43.31L126.921 44.1154L126.928 44.11L126.328 43.31ZM127.083 42.0316L126.098 41.8583L126.095 41.8735L126.093 41.8886L127.083 42.0316ZM126.772 40.5312L126.017 41.1872L126.023 41.1941L126.772 40.5312ZM121.312 39.9897V38.9897H120.467L120.326 39.8234L121.312 39.9897ZM121.623 38.0455L120.637 37.8798L120.441 39.0455H121.623V38.0455ZM126.124 37.8324L125.778 36.8943L125.778 36.8943L126.124 37.8324ZM127.056 37.2287L127.796 37.9014L127.804 37.8931L127.056 37.2287ZM127.5 36.2876L126.516 36.1088L126.515 36.1173L126.513 36.1259L127.5 36.2876ZM127.056 35.0625L126.439 35.8492L126.445 35.8545L126.452 35.8596L127.056 35.0625ZM122.2 34.6097V33.6097H121.354L121.214 34.4441L122.2 34.6097ZM118.792 46.1644L121.065 32.528L119.092 32.1992L116.819 45.8356L118.792 46.1644ZM120.078 33.3636H125.724V31.3636H120.078V33.3636ZM125.724 33.3636C127.134 33.3636 128.031 33.6684 128.576 34.1192L129.851 32.579C128.809 31.7159 127.38 31.3636 125.724 31.3636V33.3636ZM128.578 34.1215C129.071 34.5264 129.278 35.0374 129.142 35.8358L131.114 36.1714C131.357 34.7443 130.954 33.4856 129.849 32.5767L128.578 34.1215ZM129.141 35.8439C129.047 36.4237 128.804 36.8283 128.425 37.1276L129.665 38.697C130.469 38.0612 130.948 37.1933 131.115 36.1632L129.141 35.8439ZM128.43 37.1238C127.982 37.4729 127.414 37.7266 126.694 37.8616L127.063 39.8273C128.048 39.6427 128.924 39.275 129.66 38.7008L128.43 37.1238ZM126.759 39.8373C127.215 39.892 127.595 40.0292 127.919 40.2368L128.998 38.553C128.399 38.1688 127.726 37.939 126.998 37.8516L126.759 39.8373ZM127.927 40.2417C128.222 40.4271 128.434 40.6694 128.578 40.9878L130.4 40.1635C130.094 39.4875 129.619 38.9427 128.991 38.5481L127.927 40.2417ZM128.579 40.9919C128.703 41.2623 128.762 41.637 128.678 42.1686L130.654 42.4805C130.783 41.6627 130.724 40.8714 130.398 40.1594L128.579 40.9919ZM128.681 42.1549C128.586 42.7039 128.365 43.1793 128.013 43.5988L129.544 44.8856C130.126 44.1924 130.498 43.3894 130.652 42.4942L128.681 42.1549ZM128.016 43.5948C127.665 44.0087 127.189 44.3532 126.558 44.6144L127.323 46.4623C128.208 46.0961 128.957 45.5765 129.541 44.8896L128.016 43.5948ZM126.562 44.6129C125.954 44.8617 125.214 45 124.322 45V47C125.418 47 126.424 46.8305 127.32 46.4638L126.562 44.6129ZM124.322 45H117.805V47H124.322V45ZM120.673 44.7805H124.695V42.7805H120.673V44.7805ZM124.695 44.7805C125.516 44.7805 126.284 44.5844 126.921 44.1154L125.735 42.5047C125.52 42.663 125.199 42.7805 124.695 42.7805V44.7805ZM126.928 44.11C127.568 43.6298 127.958 42.9661 128.072 42.1746L126.093 41.8886C126.053 42.1624 125.94 42.3511 125.728 42.51L126.928 44.11ZM128.068 42.2049C128.213 41.3766 128.107 40.5305 127.521 39.8684L126.023 41.1941C126.076 41.2541 126.177 41.4082 126.098 41.8583L128.068 42.2049ZM127.527 39.8754C126.963 39.2266 126.162 38.9897 125.334 38.9897V40.9897C125.796 40.9897 125.953 41.1139 126.017 41.1871L127.527 39.8754ZM125.334 38.9897H121.312V40.9897H125.334V38.9897ZM120.326 39.8234L119.687 43.6143L121.659 43.9468L122.298 40.156L120.326 39.8234ZM121.623 39.0455H124.801V37.0455H121.623V39.0455ZM124.801 39.0455C125.392 39.0455 125.954 38.9611 126.47 38.7705L125.778 36.8943C125.524 36.9877 125.204 37.0455 124.801 37.0455V39.0455ZM126.47 38.7705C126.981 38.582 127.435 38.2988 127.796 37.9014L126.316 36.556C126.204 36.6794 126.037 36.7986 125.778 36.8943L126.47 38.7705ZM127.804 37.8931C128.17 37.4813 128.398 36.992 128.487 36.4494L126.513 36.1259C126.484 36.3053 126.416 36.4434 126.309 36.5643L127.804 37.8931ZM128.484 36.4665C128.556 36.0701 128.546 35.6534 128.4 35.2501C128.252 34.8419 127.989 34.5145 127.66 34.2654L126.452 35.8596C126.514 35.9064 126.52 35.9312 126.52 35.9314C126.522 35.9364 126.539 35.9844 126.516 36.1088L128.484 36.4665ZM127.673 34.2758C127.04 33.7789 126.213 33.6097 125.352 33.6097V35.6097C125.993 35.6097 126.303 35.7424 126.439 35.8492L127.673 34.2758ZM125.352 33.6097H122.2V35.6097H125.352V33.6097ZM121.214 34.4441L120.637 37.8798L122.609 38.2111L123.186 34.7754L121.214 34.4441ZM135.197 42.2802L134.21 42.1176L135.989 42.8911L135.197 42.2802ZM142.85 32.3636V31.3636H142.358L142.058 31.7527L142.85 32.3636ZM145.708 32.3636L146.695 32.528L146.889 31.3636H145.708V32.3636ZM143.436 46V47H144.283L144.422 46.1644L143.436 46ZM140.835 46L139.848 45.8367L139.655 47H140.835V46ZM142.477 36.0746L143.464 36.2378L141.684 35.4649L142.477 36.0746ZM134.842 46V47H135.334L135.635 46.6097L134.842 46ZM131.966 46L130.979 45.8356L130.785 47H131.966V46ZM134.238 32.3636V31.3636H133.391L133.252 32.1992L134.238 32.3636ZM136.831 32.3636L137.817 32.5262L138.009 31.3636H136.831V32.3636ZM135.989 42.8911L143.641 32.9746L142.058 31.7527L134.405 41.6692L135.989 42.8911ZM142.85 33.3636H145.708V31.3636H142.85V33.3636ZM144.722 32.1992L142.449 45.8356L144.422 46.1644L146.695 32.528L144.722 32.1992ZM143.436 45H140.835V47H143.436V45ZM141.821 46.1633L143.464 36.2378L141.49 35.9113L139.848 45.8367L141.821 46.1633ZM141.684 35.4649L134.049 45.3903L135.635 46.6097L143.27 36.6843L141.684 35.4649ZM134.842 45H131.966V47H134.842V45ZM132.952 46.1644L135.225 32.528L133.252 32.1992L130.979 45.8356L132.952 46.1644ZM134.238 33.3636H136.831V31.3636H134.238V33.3636ZM135.844 32.2011L134.21 42.1176L136.184 42.4427L137.817 32.5262L135.844 32.2011ZM147.204 34.6541L146.217 34.4934L146.028 35.6541H147.204V34.6541ZM147.577 32.3636V31.3636H146.727L146.59 32.203L147.577 32.3636ZM159.083 32.3636L160.07 32.5243L160.259 31.3636H159.083V32.3636ZM158.71 34.6541V35.6541H159.56L159.697 34.8148L158.71 34.6541ZM154.262 34.6541V33.6541H153.413L153.275 34.492L154.262 34.6541ZM152.398 46V47H153.247L153.385 46.1621L152.398 46ZM149.797 46L148.81 45.8379L148.619 47H149.797V46ZM151.661 34.6541L152.648 34.8163L152.839 33.6541H151.661V34.6541ZM148.191 34.8148L148.564 32.5243L146.59 32.203L146.217 34.4934L148.191 34.8148ZM147.577 33.3636H159.083V31.3636H147.577V33.3636ZM158.096 32.203L157.723 34.4934L159.697 34.8148L160.07 32.5243L158.096 32.203ZM158.71 33.6541H154.262V35.6541H158.71V33.6541ZM153.275 34.492L151.411 45.8379L153.385 46.1621L155.249 34.8163L153.275 34.492ZM152.398 45H149.797V47H152.398V45ZM150.783 46.1621L152.648 34.8163L150.674 34.492L148.81 45.8379L150.783 46.1621ZM151.661 33.6541H147.204V35.6541H151.661V33.6541ZM163.116 37.0511V36.0511H162.265L162.129 36.8905L163.116 37.0511ZM170.715 38.294L169.977 38.9688L169.98 38.9717L170.715 38.294ZM171.55 41.4989L172.535 41.67L172.536 41.6627L172.537 41.6554L171.55 41.4989ZM170.546 43.7983L169.752 43.1906L169.752 43.1906L170.546 43.7983ZM168.505 45.4141L168.928 46.3198L168.931 46.3184L168.505 45.4141ZM159.627 46L158.64 45.8356L158.446 47H159.627V46ZM161.899 32.3636V31.3636H161.052L160.913 32.1992L161.899 32.3636ZM164.492 32.3636L165.478 32.528L165.672 31.3636H164.492V32.3636ZM162.601 43.7095L161.614 43.5451L161.42 44.7095H162.601V43.7095ZM167.945 43.1147L167.369 42.2975L167.365 42.3004L167.945 43.1147ZM168.931 41.5788L167.945 41.4116L167.943 41.4206L167.942 41.4296L168.931 41.5788ZM168.46 39.9631L167.758 40.6752L167.763 40.6801L168.46 39.9631ZM162.743 39.3416L161.756 39.1809L161.567 40.3416H162.743V39.3416ZM163.116 38.0511H167.084V36.0511H163.116V38.0511ZM167.084 38.0511C168.603 38.0511 169.485 38.4301 169.977 38.9688L171.453 37.6193C170.43 36.5007 168.892 36.0511 167.084 36.0511V38.0511ZM169.98 38.9717C170.498 39.5347 170.731 40.2771 170.562 41.3425L172.537 41.6554C172.783 40.1047 172.459 38.7106 171.451 37.6164L169.98 38.9717ZM170.564 41.3279C170.444 42.0229 170.174 42.6392 169.752 43.1906L171.341 44.406C171.96 43.5961 172.36 42.6795 172.535 41.67L170.564 41.3279ZM169.752 43.1906C169.337 43.7339 168.786 44.1754 168.078 44.5097L168.931 46.3184C169.904 45.8596 170.715 45.2239 171.341 44.406L169.752 43.1906ZM168.081 44.5084C167.403 44.8253 166.58 45 165.584 45V47C166.813 47 167.937 46.784 168.928 46.3198L168.081 44.5084ZM165.584 45H159.627V47H165.584V45ZM160.613 46.1644L162.886 32.528L160.913 32.1992L158.64 45.8356L160.613 46.1644ZM161.899 33.3636H164.492V31.3636H161.899V33.3636ZM163.505 32.1992L161.614 43.5451L163.587 43.8739L165.478 32.528L163.505 32.1992ZM162.601 44.7095H165.957V42.7095H162.601V44.7095ZM165.957 44.7095C166.907 44.7095 167.779 44.4613 168.526 43.929L167.365 42.3004C166.999 42.5612 166.545 42.7095 165.957 42.7095V44.7095ZM168.522 43.9319C169.286 43.393 169.78 42.6493 169.919 41.7281L167.942 41.4296C167.892 41.7631 167.729 42.0433 167.369 42.2975L168.522 43.9319ZM169.917 41.7461C170.076 40.8084 169.853 39.9226 169.157 39.2461L167.763 40.6801C167.919 40.8321 168.011 41.0235 167.945 41.4116L169.917 41.7461ZM169.162 39.251C168.507 38.6053 167.641 38.3416 166.702 38.3416V40.3416C167.267 40.3416 167.573 40.4922 167.758 40.6752L169.162 39.251ZM166.702 38.3416H162.743V40.3416H166.702V38.3416ZM163.73 39.5023L164.103 37.2118L162.129 36.8905L161.756 39.1809L163.73 39.5023Z" fill="black" mask="url(#path-2-outside-1_33_2)"/>
</g>
<defs>
<filter id="filter0_d_33_2" x="37.3228" y="27.5696" width="138.538" height="31.544" filterUnits="userSpaceOnUse" color-interpolation-filters="sRGB">
<feFlood flood-opacity="0" result="BackgroundImageFix"/>
<feColorMatrix in="SourceAlpha" type="matrix" values="0 0 0 0 0 0 0 0 0 0 0 0 0 0 0 0 0 0 127 0" result="hardAlpha"/>
<feOffset dy="4"/>
<feGaussianBlur stdDeviation="2"/>
<feComposite in2="hardAlpha" operator="out"/>
<feColorMatrix type="matrix" values="0 0 0 0 0 0 0 0 0 0 0 0 0 0 0 0 0 0 0.25 0"/>
<feBlend mode="normal" in2="BackgroundImageFix" result="effect1_dropShadow_33_2"/>
<feBlend mode="normal" in="SourceGraphic" in2="effect1_dropShadow_33_2" result="shape"/>
</filter>
<linearGradient id="paint0_linear_33_2" x1="646" y1="0" x2="646" y2="2060" gradientUnits="userSpaceOnUse">
<stop stop-color="#1F13B1"/>
<stop offset="1" stop-color="#A60C0C" stop-opacity="0"/>
</linearGradient>
</defs>
</svg>
