<svg width="130" height="46" viewBox="0 0 130 46" fill="none" xmlns="http://www.w3.org/2000/svg">
<path d="M43.321 28V17.0909H47.1349C47.8949 17.0909 48.5217 17.2223 49.0153 17.4851C49.5089 17.7443 49.8764 18.0941 50.1179 18.5344C50.3594 18.9712 50.4801 19.456 50.4801 19.9886C50.4801 20.4574 50.3967 20.8445 50.2298 21.1499C50.0664 21.4553 49.8498 21.6967 49.5799 21.8743C49.3136 22.0518 49.0241 22.1832 48.7116 22.2685V22.375C49.0455 22.3963 49.381 22.5135 49.7184 22.7266C50.0558 22.9396 50.3381 23.245 50.5653 23.6428C50.7926 24.0405 50.9062 24.527 50.9062 25.1023C50.9062 25.6491 50.782 26.141 50.5334 26.5778C50.2848 27.0146 49.8924 27.3608 49.3562 27.6165C48.82 27.8722 48.1222 28 47.2628 28H43.321ZM44.642 26.8281H47.2628C48.1257 26.8281 48.7383 26.6612 49.1005 26.3274C49.4663 25.9901 49.6491 25.5817 49.6491 25.1023C49.6491 24.733 49.555 24.392 49.3668 24.0795C49.1786 23.7635 48.9105 23.5114 48.5625 23.3232C48.2145 23.1314 47.8026 23.0355 47.3267 23.0355H44.642V26.8281ZM44.642 21.8849H47.0923C47.4901 21.8849 47.8487 21.8068 48.1683 21.6506C48.4915 21.4943 48.7472 21.2741 48.9354 20.9901C49.1271 20.706 49.223 20.3722 49.223 19.9886C49.223 19.5092 49.0561 19.1026 48.7223 18.7688C48.3885 18.4315 47.8594 18.2628 47.1349 18.2628H44.642V21.8849ZM56.2303 28.1705C55.4917 28.1705 54.8436 27.9947 54.286 27.6431C53.7321 27.2915 53.2988 26.7997 52.9863 26.1676C52.6774 25.5355 52.5229 24.7969 52.5229 23.9517C52.5229 23.0994 52.6774 22.3555 52.9863 21.7198C53.2988 21.0842 53.7321 20.5906 54.286 20.239C54.8436 19.8874 55.4917 19.7116 56.2303 19.7116C56.9689 19.7116 57.6152 19.8874 58.1692 20.239C58.7267 20.5906 59.16 21.0842 59.4689 21.7198C59.7814 22.3555 59.9377 23.0994 59.9377 23.9517C59.9377 24.7969 59.7814 25.5355 59.4689 26.1676C59.16 26.7997 58.7267 27.2915 58.1692 27.6431C57.6152 27.9947 56.9689 28.1705 56.2303 28.1705ZM56.2303 27.0412C56.7914 27.0412 57.253 26.8974 57.6152 26.6097C57.9775 26.3221 58.2456 25.9439 58.4196 25.4751C58.5936 25.0064 58.6806 24.4986 58.6806 23.9517C58.6806 23.4048 58.5936 22.8952 58.4196 22.4229C58.2456 21.9506 57.9775 21.5689 57.6152 21.2777C57.253 20.9865 56.7914 20.8409 56.2303 20.8409C55.6692 20.8409 55.2076 20.9865 54.8453 21.2777C54.4831 21.5689 54.215 21.9506 54.041 22.4229C53.867 22.8952 53.78 23.4048 53.78 23.9517C53.78 24.4986 53.867 25.0064 54.041 25.4751C54.215 25.9439 54.4831 26.3221 54.8453 26.6097C55.2076 26.8974 55.6692 27.0412 56.2303 27.0412ZM63.1137 26.1463L67.0555 19.8182H68.5044V28H67.2472V21.6719L63.3268 28H61.8566V19.8182H63.1137V26.1463ZM66.2245 17.0909H67.3964C67.3964 17.6662 67.1975 18.1367 66.7998 18.5025C66.4021 18.8683 65.8623 19.0511 65.1805 19.0511C64.5093 19.0511 63.9749 18.8683 63.5771 18.5025C63.183 18.1367 62.9859 17.6662 62.9859 17.0909H64.1578C64.1578 17.3679 64.2341 17.6112 64.3868 17.8207C64.5431 18.0302 64.8076 18.1349 65.1805 18.1349C65.5534 18.1349 65.8197 18.0302 65.9795 17.8207C66.1428 17.6112 66.2245 17.3679 66.2245 17.0909ZM69.6935 20.9901V19.8182H76.3413V20.9901H73.6566V28H72.3995V20.9901H69.6935ZM79.4321 26.1463L83.3738 19.8182H84.8227V28H83.5656V21.6719L79.6452 28H78.175V19.8182H79.4321V26.1463Z" fill="white"/>
<rect x="0.5" y="0.5" width="129" height="45" rx="22.5" stroke="white"/>
</svg>
