<svg width="171" height="46" viewBox="0 0 171 46" fill="none" xmlns="http://www.w3.org/2000/svg">
<rect x="0.5" y="0.5" width="170" height="45" rx="22.5" fill="#CCB801" stroke="white"/>
<path d="M39.321 29V18.0909H43.0071C43.8629 18.0909 44.5625 18.2454 45.1058 18.5543C45.6527 18.8597 46.0575 19.2734 46.3203 19.7955C46.5831 20.3175 46.7145 20.8999 46.7145 21.5426C46.7145 22.1854 46.5831 22.7695 46.3203 23.2951C46.0611 23.8207 45.6598 24.2397 45.1165 24.5522C44.5732 24.8612 43.8771 25.0156 43.0284 25.0156H40.3864V23.8438H42.9858C43.5717 23.8438 44.0423 23.7425 44.3974 23.5401C44.7525 23.3377 45.0099 23.0643 45.1697 22.7198C45.3331 22.3718 45.4148 21.9794 45.4148 21.5426C45.4148 21.1058 45.3331 20.7152 45.1697 20.3707C45.0099 20.0263 44.7507 19.7564 44.392 19.5611C44.0334 19.3622 43.5575 19.2628 42.9645 19.2628H40.642V29H39.321ZM52.0146 29.1705C51.2262 29.1705 50.5462 28.9964 49.9744 28.6484C49.4062 28.2969 48.9677 27.8068 48.6587 27.1783C48.3533 26.5462 48.2006 25.8111 48.2006 24.973C48.2006 24.1349 48.3533 23.3963 48.6587 22.7571C48.9677 22.1143 49.3974 21.6136 49.9478 21.255C50.5018 20.8928 51.1481 20.7116 51.8867 20.7116C52.3129 20.7116 52.7337 20.7827 53.1491 20.9247C53.5646 21.0668 53.9428 21.2976 54.2837 21.6172C54.6246 21.9332 54.8963 22.3523 55.0987 22.8743C55.3011 23.3963 55.4023 24.0391 55.4023 24.8026V25.3352H49.0955V24.2486H54.1239C54.1239 23.7869 54.0316 23.375 53.8469 23.0128C53.6658 22.6506 53.4066 22.3647 53.0692 22.1552C52.7354 21.9457 52.3413 21.8409 51.8867 21.8409C51.386 21.8409 50.9528 21.9652 50.587 22.2138C50.2248 22.4588 49.946 22.7784 49.7507 23.1726C49.5554 23.5668 49.4577 23.9893 49.4577 24.4403V25.1648C49.4577 25.7827 49.5643 26.3065 49.7773 26.7362C49.994 27.1623 50.294 27.4872 50.6776 27.7109C51.0611 27.9311 51.5067 28.0412 52.0146 28.0412C52.3448 28.0412 52.6431 27.995 52.9094 27.9027C53.1793 27.8068 53.4119 27.6648 53.6072 27.4766C53.8026 27.2848 53.9535 27.0469 54.06 26.7628L55.2745 27.1037C55.1467 27.5156 54.9318 27.8778 54.63 28.1903C54.3281 28.4993 53.9553 28.7408 53.5114 28.9148C53.0675 29.0852 52.5685 29.1705 52.0146 29.1705ZM62.3643 20.8182V21.9901H58.5717V29H57.3146V20.8182H62.3643ZM67.205 29.1705C66.4166 29.1705 65.7366 28.9964 65.1649 28.6484C64.5967 28.2969 64.1581 27.8068 63.8492 27.1783C63.5438 26.5462 63.3911 25.8111 63.3911 24.973C63.3911 24.1349 63.5438 23.3963 63.8492 22.7571C64.1581 22.1143 64.5878 21.6136 65.1382 21.255C65.6922 20.8928 66.3385 20.7116 67.0771 20.7116C67.5033 20.7116 67.9241 20.7827 68.3396 20.9247C68.7551 21.0668 69.1333 21.2976 69.4742 21.6172C69.8151 21.9332 70.0867 22.3523 70.2892 22.8743C70.4916 23.3963 70.5928 24.0391 70.5928 24.8026V25.3352H64.286V24.2486H69.3144C69.3144 23.7869 69.222 23.375 69.0374 23.0128C68.8563 22.6506 68.597 22.3647 68.2597 22.1552C67.9259 21.9457 67.5317 21.8409 67.0771 21.8409C66.5764 21.8409 66.1432 21.9652 65.7774 22.2138C65.4152 22.4588 65.1365 22.7784 64.9411 23.1726C64.7458 23.5668 64.6482 23.9893 64.6482 24.4403V25.1648C64.6482 25.7827 64.7547 26.3065 64.9678 26.7362C65.1844 27.1623 65.4845 27.4872 65.868 27.7109C66.2515 27.9311 66.6972 28.0412 67.205 28.0412C67.5352 28.0412 67.8335 27.995 68.0999 27.9027C68.3698 27.8068 68.6024 27.6648 68.7977 27.4766C68.993 27.2848 69.1439 27.0469 69.2504 26.7628L70.4649 27.1037C70.3371 27.5156 70.1222 27.8778 69.8204 28.1903C69.5186 28.4993 69.1457 28.7408 68.7018 28.9148C68.2579 29.0852 67.759 29.1705 67.205 29.1705ZM75.8289 29.1705C75.0619 29.1705 74.4014 28.9893 73.8474 28.6271C73.2934 28.2649 72.8673 27.766 72.569 27.1303C72.2707 26.4947 72.1215 25.7685 72.1215 24.9517C72.1215 24.1207 72.2742 23.3874 72.5796 22.7518C72.8886 22.1126 73.3183 21.6136 73.8687 21.255C74.4227 20.8928 75.069 20.7116 75.8076 20.7116C76.3829 20.7116 76.9014 20.8182 77.363 21.0312C77.8247 21.2443 78.2029 21.5426 78.4976 21.9261C78.7923 22.3097 78.9752 22.7571 79.0463 23.2685H77.7892C77.6933 22.8956 77.4802 22.5653 77.1499 22.2777C76.8232 21.9865 76.3829 21.8409 75.8289 21.8409C75.3389 21.8409 74.9092 21.9687 74.5399 22.2244C74.1741 22.4766 73.8882 22.8335 73.6823 23.2951C73.4798 23.7532 73.3786 24.2912 73.3786 24.9091C73.3786 25.5412 73.4781 26.0916 73.6769 26.5604C73.8794 27.0291 74.1634 27.3931 74.5292 27.6523C74.8985 27.9116 75.3318 28.0412 75.8289 28.0412C76.1556 28.0412 76.4521 27.9844 76.7185 27.8707C76.9848 27.7571 77.2103 27.5938 77.395 27.3807C77.5796 27.1676 77.711 26.9119 77.7892 26.6136H79.0463C78.9752 27.0966 78.7994 27.5316 78.5189 27.9187C78.2419 28.3022 77.8744 28.6076 77.4163 28.8349C76.9617 29.0586 76.4326 29.1705 75.8289 29.1705ZM80.2394 21.9901V20.8182H86.8872V21.9901H84.2025V29H82.9454V21.9901H80.2394ZM88.7209 32.0682V20.8182H89.9354V22.1179H90.0845C90.1768 21.9759 90.3047 21.7947 90.468 21.5746C90.6349 21.3509 90.8729 21.152 91.1818 20.978C91.4943 20.8004 91.9169 20.7116 92.4496 20.7116C93.1385 20.7116 93.7457 20.8839 94.2713 21.2283C94.7969 21.5728 95.207 22.0611 95.5018 22.6932C95.7965 23.3253 95.9439 24.071 95.9439 24.9304C95.9439 25.7969 95.7965 26.5479 95.5018 27.1836C95.207 27.8157 94.7987 28.3058 94.2766 28.6538C93.7546 28.9982 93.1527 29.1705 92.4709 29.1705C91.9453 29.1705 91.5245 29.0835 91.2085 28.9094C90.8924 28.7319 90.6491 28.5312 90.4787 28.3075C90.3082 28.0803 90.1768 27.892 90.0845 27.7429H89.978V32.0682H88.7209ZM89.9567 24.9091C89.9567 25.527 90.0472 26.0721 90.2283 26.5444C90.4094 27.0131 90.674 27.3807 91.022 27.647C91.37 27.9098 91.7962 28.0412 92.3004 28.0412C92.826 28.0412 93.2646 27.9027 93.6161 27.6257C93.9712 27.3452 94.2376 26.9687 94.4151 26.4964C94.5962 26.0206 94.6868 25.4915 94.6868 24.9091C94.6868 24.3338 94.598 23.8153 94.4205 23.3537C94.2464 22.8885 93.9819 22.521 93.6268 22.2511C93.2752 21.9776 92.8331 21.8409 92.3004 21.8409C91.7891 21.8409 91.3594 21.9705 91.0114 22.2298C90.6634 22.4854 90.4006 22.8441 90.223 23.3058C90.0455 23.7638 89.9567 24.2983 89.9567 24.9091ZM100.269 29.1918C99.7507 29.1918 99.2802 29.0941 98.8576 28.8988C98.435 28.6999 98.0994 28.4141 97.8509 28.0412C97.6023 27.6648 97.478 27.2102 97.478 26.6776C97.478 26.2088 97.5703 25.8288 97.755 25.5376C97.9396 25.2429 98.1864 25.0121 98.4954 24.8452C98.8043 24.6783 99.1452 24.554 99.5181 24.4723C99.8945 24.3871 100.273 24.3196 100.653 24.2699C101.15 24.206 101.553 24.158 101.862 24.1261C102.174 24.0906 102.402 24.032 102.544 23.9503C102.689 23.8686 102.762 23.7266 102.762 23.5241V23.4815C102.762 22.956 102.618 22.5476 102.331 22.2564C102.047 21.9652 101.615 21.8196 101.036 21.8196C100.436 21.8196 99.9656 21.951 99.6246 22.2138C99.2837 22.4766 99.044 22.7571 98.9055 23.0554L97.7124 22.6293C97.9254 22.1321 98.2095 21.745 98.5646 21.468C98.9233 21.1875 99.3139 20.9922 99.7365 20.8821C100.163 20.7685 100.582 20.7116 100.994 20.7116C101.256 20.7116 101.558 20.7436 101.899 20.8075C102.244 20.8679 102.576 20.994 102.895 21.1857C103.218 21.3775 103.487 21.6669 103.7 22.054C103.913 22.4411 104.019 22.9595 104.019 23.6094V29H102.762V27.892H102.698C102.613 28.0696 102.471 28.2596 102.272 28.462C102.073 28.6644 101.809 28.8366 101.478 28.9787C101.148 29.1207 100.745 29.1918 100.269 29.1918ZM100.461 28.0625C100.958 28.0625 101.377 27.9648 101.718 27.7695C102.063 27.5742 102.322 27.3221 102.496 27.0131C102.673 26.7042 102.762 26.3793 102.762 26.0384V24.8878C102.709 24.9517 102.592 25.0103 102.411 25.0636C102.233 25.1133 102.027 25.1577 101.793 25.1967C101.562 25.2322 101.336 25.2642 101.116 25.2926C100.9 25.3175 100.724 25.3388 100.589 25.3565C100.262 25.3991 99.9567 25.4684 99.6726 25.5643C99.392 25.6566 99.1648 25.7969 98.9908 25.9851C98.8203 26.1697 98.7351 26.4219 98.7351 26.7415C98.7351 27.1783 98.8967 27.5085 99.2198 27.7322C99.5465 27.9524 99.9602 28.0625 100.461 28.0625ZM112.748 20.8182V27.8281H113.899V31.642H112.642V29H106.314V20.8182H107.571V27.8281H111.491V20.8182H112.748ZM117.092 27.1463L121.034 20.8182H122.483V29H121.226V22.6719L117.305 29H115.835V20.8182H117.092V27.1463ZM129.707 29V21.9688H127.534C127.044 21.9688 126.659 22.0824 126.378 22.3097C126.097 22.5369 125.957 22.8494 125.957 23.2472C125.957 23.6378 126.083 23.945 126.335 24.1687C126.591 24.3924 126.941 24.5043 127.385 24.5043H130.027V25.6761H127.385C126.831 25.6761 126.353 25.5785 125.952 25.3832C125.551 25.1879 125.242 24.9091 125.025 24.5469C124.808 24.1811 124.7 23.7479 124.7 23.2472C124.7 22.7429 124.814 22.3097 125.041 21.9474C125.268 21.5852 125.593 21.3065 126.016 21.1112C126.442 20.9158 126.948 20.8182 127.534 20.8182H130.9V29H129.707ZM124.253 29L126.575 24.9304H127.939L125.616 29H124.253Z" fill="white"/>
</svg>
