<svg width="208" height="70" viewBox="0 0 208 70" fill="none" xmlns="http://www.w3.org/2000/svg">
<g filter="url(#filter0_d_4_26)">
<mask id="path-1-outside-1_4_26" maskUnits="userSpaceOnUse" x="4" y="8" width="184" height="41" fill="black">
<rect fill="white" x="4" y="8" width="184" height="41"/>
<path d="M23.9006 18.3608C23.9479 17.1771 23.6023 16.2633 22.8636 15.6193C22.1345 14.9754 21.0313 14.6534 19.554 14.6534C18.5502 14.6534 17.679 14.7955 16.9403 15.0795C16.2017 15.3542 15.6098 15.7377 15.1648 16.2301C14.7292 16.7131 14.4593 17.2718 14.3551 17.9062C14.2509 18.4271 14.2841 18.8816 14.4545 19.2699C14.6345 19.6581 14.9138 19.9943 15.2926 20.2784C15.6809 20.553 16.1402 20.7945 16.6705 21.0028C17.2008 21.2017 17.7642 21.3722 18.3608 21.5142L20.8608 22.1392C22.0824 22.4233 23.1809 22.8021 24.1562 23.2756C25.1411 23.7491 25.965 24.3314 26.6278 25.0227C27.3002 25.714 27.7737 26.5284 28.0483 27.4659C28.3229 28.4034 28.3608 29.4782 28.1619 30.6903C27.8589 32.4706 27.1534 34.0142 26.0455 35.321C24.9375 36.6184 23.4839 37.6269 21.6847 38.3466C19.8854 39.0568 17.8021 39.4119 15.4347 39.4119C13.0862 39.4119 11.1023 39.0521 9.48295 38.3324C7.86364 37.6127 6.68466 36.5473 5.94602 35.1364C5.21686 33.7159 4.99905 31.9593 5.29261 29.8665H11.2443C11.1402 30.8419 11.2822 31.6562 11.6705 32.3097C12.0682 32.9536 12.66 33.4413 13.446 33.7727C14.232 34.0947 15.1553 34.2557 16.2159 34.2557C17.267 34.2557 18.1998 34.1042 19.0142 33.8011C19.8381 33.4981 20.5057 33.0767 21.017 32.5369C21.5284 31.9972 21.8409 31.3769 21.9545 30.6761C22.0682 30.0227 21.9688 29.4735 21.6562 29.0284C21.3438 28.5833 20.8419 28.2045 20.1506 27.892C19.4688 27.5701 18.6212 27.286 17.608 27.0398L14.5682 26.2443C12.2197 25.6477 10.4441 24.715 9.24148 23.446C8.03883 22.1771 7.60795 20.4678 7.94886 18.3182C8.25189 16.5568 8.9858 15.018 10.1506 13.7017C11.3248 12.3759 12.8021 11.3485 14.5824 10.6193C16.3722 9.88068 18.3277 9.51136 20.4489 9.51136C22.608 9.51136 24.4309 9.88542 25.9176 10.6335C27.4044 11.3722 28.4886 12.4044 29.1705 13.7301C29.8523 15.0559 30.0606 16.5994 29.7955 18.3608H23.9006ZM29.4865 47.1818L34.5149 17.1818H40.4808L39.87 20.8466H40.1399C40.4998 20.2595 40.978 19.6629 41.5746 19.0568C42.1806 18.4413 42.9335 17.9299 43.8331 17.5227C44.7327 17.1061 45.7886 16.8977 47.0007 16.8977C48.6011 16.8977 49.9979 17.3144 51.1911 18.1477C52.3842 18.9716 53.246 20.2169 53.7763 21.8835C54.3161 23.5407 54.3776 25.6193 53.9609 28.1193C53.5632 30.553 52.8293 32.608 51.7592 34.2841C50.6986 35.9508 49.425 37.215 47.9382 38.0767C46.4609 38.929 44.8937 39.3551 43.2365 39.3551C42.0623 39.3551 41.0964 39.161 40.3388 38.7727C39.5907 38.3845 39.0083 37.8968 38.5916 37.3097C38.175 36.7131 37.8814 36.1117 37.7109 35.5057H37.4837L35.5518 47.1818H29.4865ZM38.62 28.0909C38.4117 29.3883 38.4022 30.5199 38.5916 31.4858C38.7905 32.4517 39.1882 33.2045 39.7848 33.7443C40.3814 34.2746 41.1674 34.5398 42.1428 34.5398C43.1276 34.5398 44.0036 34.2699 44.7706 33.7301C45.5376 33.1809 46.1768 32.4233 46.6882 31.4574C47.1996 30.482 47.5642 29.3598 47.782 28.0909C47.9808 26.8314 47.9856 25.7235 47.7962 24.767C47.6068 23.8106 47.2185 23.0625 46.6314 22.5227C46.0443 21.983 45.2488 21.7131 44.245 21.7131C43.2696 21.7131 42.3937 21.9735 41.6172 22.4943C40.8501 23.0152 40.2109 23.7538 39.6996 24.7102C39.1882 25.6667 38.8284 26.7936 38.62 28.0909ZM66.0455 39.4261C63.8201 39.4261 61.9782 38.9527 60.5199 38.0057C59.0616 37.0492 58.0341 35.7235 57.4375 34.0284C56.8504 32.3239 56.7415 30.34 57.1108 28.0767C57.4706 25.8419 58.2188 23.8864 59.3551 22.2102C60.4915 20.5341 61.9356 19.232 63.6875 18.304C65.4394 17.3665 67.4138 16.8977 69.6108 16.8977C71.8267 16.8977 73.6638 17.3759 75.1222 18.3324C76.5805 19.2794 77.608 20.6051 78.2045 22.3097C78.8011 24.0142 78.9148 25.9981 78.5455 28.2614C78.1761 30.4867 77.4186 32.4375 76.2727 34.1136C75.1269 35.7898 73.6828 37.0966 71.9403 38.0341C70.1979 38.9621 68.233 39.4261 66.0455 39.4261ZM66.642 34.7386C67.6648 34.7386 68.5691 34.4498 69.3551 33.8722C70.1506 33.285 70.8087 32.4896 71.3295 31.4858C71.8598 30.4725 72.2292 29.3267 72.4375 28.0483C72.6458 26.7888 72.66 25.6714 72.4801 24.696C72.3002 23.7112 71.9214 22.9347 71.3438 22.3665C70.7756 21.7983 69.9943 21.5142 69 21.5142C67.9773 21.5142 67.0682 21.8078 66.2727 22.3949C65.4773 22.9725 64.8191 23.768 64.2983 24.7812C63.7775 25.7945 63.4129 26.9451 63.2045 28.233C63.0057 29.483 62.9915 30.6004 63.1619 31.5852C63.3324 32.5606 63.7064 33.3324 64.2841 33.9006C64.8617 34.4593 65.6477 34.7386 66.642 34.7386ZM80.6903 39L84.3267 17.1818H90.1932L89.554 20.9886H89.7812C90.4062 19.6345 91.2443 18.6117 92.2955 17.9205C93.3561 17.2197 94.4972 16.8693 95.7188 16.8693C96.0218 16.8693 96.339 16.8883 96.6705 16.9261C97.0114 16.9545 97.3144 17.0019 97.5795 17.0682L96.6705 22.4517C96.4053 22.357 96.0265 22.2812 95.5341 22.2244C95.0511 22.1581 94.5919 22.125 94.1562 22.125C93.2756 22.125 92.4564 22.3191 91.6989 22.7074C90.9413 23.0862 90.3021 23.6165 89.7812 24.2983C89.2699 24.9801 88.9337 25.7661 88.7727 26.6562L86.7415 39H80.6903ZM113.393 17.1818L112.64 21.7273H99.4865L100.254 17.1818H113.393ZM104.089 11.9545H110.14L106.759 32.2955C106.665 32.8542 106.679 33.2898 106.802 33.6023C106.925 33.9053 107.129 34.1184 107.413 34.2415C107.706 34.3646 108.057 34.4261 108.464 34.4261C108.748 34.4261 109.037 34.4025 109.33 34.3551C109.624 34.2983 109.846 34.2557 109.998 34.2273L110.225 38.7301C109.884 38.8343 109.425 38.9479 108.847 39.071C108.279 39.1941 107.607 39.2699 106.83 39.2983C105.353 39.3551 104.103 39.161 103.08 38.7159C102.058 38.2614 101.324 37.5653 100.879 36.6278C100.433 35.6903 100.339 34.5114 100.594 33.0909L104.089 11.9545ZM114.281 39L119.11 9.90909H130.587C132.784 9.90909 134.593 10.2973 136.013 11.0739C137.443 11.8504 138.447 12.9536 139.025 14.3835C139.612 15.804 139.749 17.4801 139.437 19.4119C139.115 21.3437 138.419 23.0009 137.349 24.3835C136.288 25.7661 134.906 26.8314 133.201 27.5795C131.506 28.3182 129.541 28.6875 127.306 28.6875H119.621L120.474 23.7443H127.15C128.324 23.7443 129.328 23.5833 130.161 23.2614C130.995 22.9394 131.653 22.4564 132.136 21.8125C132.628 21.1686 132.95 20.3684 133.102 19.4119C133.263 18.4366 133.206 17.6222 132.931 16.9688C132.656 16.3059 132.159 15.804 131.44 15.4631C130.72 15.1127 129.773 14.9375 128.599 14.9375H124.451L120.431 39H114.281ZM132.178 25.7614L137.221 39H130.431L125.545 25.7614H132.178ZM156.191 29.7102L158.279 17.1818H164.33L160.694 39H154.884L155.538 35.0369H155.31C154.638 36.3153 153.658 37.3428 152.37 38.1193C151.082 38.8958 149.619 39.2841 147.981 39.2841C146.522 39.2841 145.291 38.9527 144.288 38.2898C143.293 37.6269 142.588 36.6847 142.171 35.4631C141.754 34.2415 141.683 32.7784 141.958 31.0739L144.288 17.1818H150.339L148.208 29.9943C148.009 31.2822 148.189 32.3002 148.748 33.0483C149.307 33.7964 150.159 34.1705 151.305 34.1705C152.034 34.1705 152.739 34.0047 153.421 33.6733C154.112 33.3324 154.709 32.8305 155.211 32.1676C155.713 31.5047 156.04 30.6856 156.191 29.7102ZM186.259 23.4034L180.761 23.7443C180.733 23.2614 180.6 22.8305 180.364 22.4517C180.136 22.0634 179.8 21.7557 179.355 21.5284C178.92 21.3011 178.37 21.1875 177.707 21.1875C176.713 21.1875 175.828 21.4148 175.051 21.8693C174.275 22.3239 173.834 22.9062 173.73 23.6165C173.645 24.071 173.763 24.4545 174.085 24.767C174.407 25.0795 175.056 25.3447 176.031 25.5625L179.866 26.358C181.912 26.7936 183.389 27.518 184.298 28.5312C185.217 29.5445 185.544 30.8703 185.278 32.5085C185.042 33.9006 184.431 35.1174 183.446 36.1591C182.461 37.1913 181.211 37.9962 179.696 38.5739C178.181 39.142 176.5 39.4261 174.653 39.4261C171.689 39.4261 169.436 38.8201 167.892 37.608C166.348 36.3958 165.605 34.7528 165.662 32.679L171.571 32.3665C171.618 33.2566 171.931 33.929 172.509 34.3835C173.086 34.8286 173.877 35.0559 174.881 35.0653C176.008 35.0843 176.964 34.8523 177.75 34.3693C178.545 33.8769 178.995 33.2803 179.099 32.5795C179.175 32.0871 179.033 31.6894 178.673 31.3864C178.323 31.0833 177.679 30.8324 176.741 30.6335L173.105 29.8807C171.041 29.4545 169.559 28.6922 168.659 27.5938C167.759 26.4953 167.452 25.0985 167.736 23.4034C167.963 22.0492 168.527 20.8892 169.426 19.9233C170.335 18.9479 171.505 18.1998 172.935 17.679C174.374 17.1581 175.998 16.8977 177.807 16.8977C180.638 16.8977 182.769 17.4801 184.199 18.6449C185.638 19.8097 186.325 21.3958 186.259 23.4034Z"/>
</mask>
<path d="M23.9006 18.3608C23.9479 17.1771 23.6023 16.2633 22.8636 15.6193C22.1345 14.9754 21.0313 14.6534 19.554 14.6534C18.5502 14.6534 17.679 14.7955 16.9403 15.0795C16.2017 15.3542 15.6098 15.7377 15.1648 16.2301C14.7292 16.7131 14.4593 17.2718 14.3551 17.9062C14.2509 18.4271 14.2841 18.8816 14.4545 19.2699C14.6345 19.6581 14.9138 19.9943 15.2926 20.2784C15.6809 20.553 16.1402 20.7945 16.6705 21.0028C17.2008 21.2017 17.7642 21.3722 18.3608 21.5142L20.8608 22.1392C22.0824 22.4233 23.1809 22.8021 24.1562 23.2756C25.1411 23.7491 25.965 24.3314 26.6278 25.0227C27.3002 25.714 27.7737 26.5284 28.0483 27.4659C28.3229 28.4034 28.3608 29.4782 28.1619 30.6903C27.8589 32.4706 27.1534 34.0142 26.0455 35.321C24.9375 36.6184 23.4839 37.6269 21.6847 38.3466C19.8854 39.0568 17.8021 39.4119 15.4347 39.4119C13.0862 39.4119 11.1023 39.0521 9.48295 38.3324C7.86364 37.6127 6.68466 36.5473 5.94602 35.1364C5.21686 33.7159 4.99905 31.9593 5.29261 29.8665H11.2443C11.1402 30.8419 11.2822 31.6562 11.6705 32.3097C12.0682 32.9536 12.66 33.4413 13.446 33.7727C14.232 34.0947 15.1553 34.2557 16.2159 34.2557C17.267 34.2557 18.1998 34.1042 19.0142 33.8011C19.8381 33.4981 20.5057 33.0767 21.017 32.5369C21.5284 31.9972 21.8409 31.3769 21.9545 30.6761C22.0682 30.0227 21.9688 29.4735 21.6562 29.0284C21.3438 28.5833 20.8419 28.2045 20.1506 27.892C19.4688 27.5701 18.6212 27.286 17.608 27.0398L14.5682 26.2443C12.2197 25.6477 10.4441 24.715 9.24148 23.446C8.03883 22.1771 7.60795 20.4678 7.94886 18.3182C8.25189 16.5568 8.9858 15.018 10.1506 13.7017C11.3248 12.3759 12.8021 11.3485 14.5824 10.6193C16.3722 9.88068 18.3277 9.51136 20.4489 9.51136C22.608 9.51136 24.4309 9.88542 25.9176 10.6335C27.4044 11.3722 28.4886 12.4044 29.1705 13.7301C29.8523 15.0559 30.0606 16.5994 29.7955 18.3608H23.9006ZM29.4865 47.1818L34.5149 17.1818H40.4808L39.87 20.8466H40.1399C40.4998 20.2595 40.978 19.6629 41.5746 19.0568C42.1806 18.4413 42.9335 17.9299 43.8331 17.5227C44.7327 17.1061 45.7886 16.8977 47.0007 16.8977C48.6011 16.8977 49.9979 17.3144 51.1911 18.1477C52.3842 18.9716 53.246 20.2169 53.7763 21.8835C54.3161 23.5407 54.3776 25.6193 53.9609 28.1193C53.5632 30.553 52.8293 32.608 51.7592 34.2841C50.6986 35.9508 49.425 37.215 47.9382 38.0767C46.4609 38.929 44.8937 39.3551 43.2365 39.3551C42.0623 39.3551 41.0964 39.161 40.3388 38.7727C39.5907 38.3845 39.0083 37.8968 38.5916 37.3097C38.175 36.7131 37.8814 36.1117 37.7109 35.5057H37.4837L35.5518 47.1818H29.4865ZM38.62 28.0909C38.4117 29.3883 38.4022 30.5199 38.5916 31.4858C38.7905 32.4517 39.1882 33.2045 39.7848 33.7443C40.3814 34.2746 41.1674 34.5398 42.1428 34.5398C43.1276 34.5398 44.0036 34.2699 44.7706 33.7301C45.5376 33.1809 46.1768 32.4233 46.6882 31.4574C47.1996 30.482 47.5642 29.3598 47.782 28.0909C47.9808 26.8314 47.9856 25.7235 47.7962 24.767C47.6068 23.8106 47.2185 23.0625 46.6314 22.5227C46.0443 21.983 45.2488 21.7131 44.245 21.7131C43.2696 21.7131 42.3937 21.9735 41.6172 22.4943C40.8501 23.0152 40.2109 23.7538 39.6996 24.7102C39.1882 25.6667 38.8284 26.7936 38.62 28.0909ZM66.0455 39.4261C63.8201 39.4261 61.9782 38.9527 60.5199 38.0057C59.0616 37.0492 58.0341 35.7235 57.4375 34.0284C56.8504 32.3239 56.7415 30.34 57.1108 28.0767C57.4706 25.8419 58.2188 23.8864 59.3551 22.2102C60.4915 20.5341 61.9356 19.232 63.6875 18.304C65.4394 17.3665 67.4138 16.8977 69.6108 16.8977C71.8267 16.8977 73.6638 17.3759 75.1222 18.3324C76.5805 19.2794 77.608 20.6051 78.2045 22.3097C78.8011 24.0142 78.9148 25.9981 78.5455 28.2614C78.1761 30.4867 77.4186 32.4375 76.2727 34.1136C75.1269 35.7898 73.6828 37.0966 71.9403 38.0341C70.1979 38.9621 68.233 39.4261 66.0455 39.4261ZM66.642 34.7386C67.6648 34.7386 68.5691 34.4498 69.3551 33.8722C70.1506 33.285 70.8087 32.4896 71.3295 31.4858C71.8598 30.4725 72.2292 29.3267 72.4375 28.0483C72.6458 26.7888 72.66 25.6714 72.4801 24.696C72.3002 23.7112 71.9214 22.9347 71.3438 22.3665C70.7756 21.7983 69.9943 21.5142 69 21.5142C67.9773 21.5142 67.0682 21.8078 66.2727 22.3949C65.4773 22.9725 64.8191 23.768 64.2983 24.7812C63.7775 25.7945 63.4129 26.9451 63.2045 28.233C63.0057 29.483 62.9915 30.6004 63.1619 31.5852C63.3324 32.5606 63.7064 33.3324 64.2841 33.9006C64.8617 34.4593 65.6477 34.7386 66.642 34.7386ZM80.6903 39L84.3267 17.1818H90.1932L89.554 20.9886H89.7812C90.4062 19.6345 91.2443 18.6117 92.2955 17.9205C93.3561 17.2197 94.4972 16.8693 95.7188 16.8693C96.0218 16.8693 96.339 16.8883 96.6705 16.9261C97.0114 16.9545 97.3144 17.0019 97.5795 17.0682L96.6705 22.4517C96.4053 22.357 96.0265 22.2812 95.5341 22.2244C95.0511 22.1581 94.5919 22.125 94.1562 22.125C93.2756 22.125 92.4564 22.3191 91.6989 22.7074C90.9413 23.0862 90.3021 23.6165 89.7812 24.2983C89.2699 24.9801 88.9337 25.7661 88.7727 26.6562L86.7415 39H80.6903ZM113.393 17.1818L112.64 21.7273H99.4865L100.254 17.1818H113.393ZM104.089 11.9545H110.14L106.759 32.2955C106.665 32.8542 106.679 33.2898 106.802 33.6023C106.925 33.9053 107.129 34.1184 107.413 34.2415C107.706 34.3646 108.057 34.4261 108.464 34.4261C108.748 34.4261 109.037 34.4025 109.33 34.3551C109.624 34.2983 109.846 34.2557 109.998 34.2273L110.225 38.7301C109.884 38.8343 109.425 38.9479 108.847 39.071C108.279 39.1941 107.607 39.2699 106.83 39.2983C105.353 39.3551 104.103 39.161 103.08 38.7159C102.058 38.2614 101.324 37.5653 100.879 36.6278C100.433 35.6903 100.339 34.5114 100.594 33.0909L104.089 11.9545ZM114.281 39L119.11 9.90909H130.587C132.784 9.90909 134.593 10.2973 136.013 11.0739C137.443 11.8504 138.447 12.9536 139.025 14.3835C139.612 15.804 139.749 17.4801 139.437 19.4119C139.115 21.3437 138.419 23.0009 137.349 24.3835C136.288 25.7661 134.906 26.8314 133.201 27.5795C131.506 28.3182 129.541 28.6875 127.306 28.6875H119.621L120.474 23.7443H127.15C128.324 23.7443 129.328 23.5833 130.161 23.2614C130.995 22.9394 131.653 22.4564 132.136 21.8125C132.628 21.1686 132.95 20.3684 133.102 19.4119C133.263 18.4366 133.206 17.6222 132.931 16.9688C132.656 16.3059 132.159 15.804 131.44 15.4631C130.72 15.1127 129.773 14.9375 128.599 14.9375H124.451L120.431 39H114.281ZM132.178 25.7614L137.221 39H130.431L125.545 25.7614H132.178ZM156.191 29.7102L158.279 17.1818H164.33L160.694 39H154.884L155.538 35.0369H155.31C154.638 36.3153 153.658 37.3428 152.37 38.1193C151.082 38.8958 149.619 39.2841 147.981 39.2841C146.522 39.2841 145.291 38.9527 144.288 38.2898C143.293 37.6269 142.588 36.6847 142.171 35.4631C141.754 34.2415 141.683 32.7784 141.958 31.0739L144.288 17.1818H150.339L148.208 29.9943C148.009 31.2822 148.189 32.3002 148.748 33.0483C149.307 33.7964 150.159 34.1705 151.305 34.1705C152.034 34.1705 152.739 34.0047 153.421 33.6733C154.112 33.3324 154.709 32.8305 155.211 32.1676C155.713 31.5047 156.04 30.6856 156.191 29.7102ZM186.259 23.4034L180.761 23.7443C180.733 23.2614 180.6 22.8305 180.364 22.4517C180.136 22.0634 179.8 21.7557 179.355 21.5284C178.92 21.3011 178.37 21.1875 177.707 21.1875C176.713 21.1875 175.828 21.4148 175.051 21.8693C174.275 22.3239 173.834 22.9062 173.73 23.6165C173.645 24.071 173.763 24.4545 174.085 24.767C174.407 25.0795 175.056 25.3447 176.031 25.5625L179.866 26.358C181.912 26.7936 183.389 27.518 184.298 28.5312C185.217 29.5445 185.544 30.8703 185.278 32.5085C185.042 33.9006 184.431 35.1174 183.446 36.1591C182.461 37.1913 181.211 37.9962 179.696 38.5739C178.181 39.142 176.5 39.4261 174.653 39.4261C171.689 39.4261 169.436 38.8201 167.892 37.608C166.348 36.3958 165.605 34.7528 165.662 32.679L171.571 32.3665C171.618 33.2566 171.931 33.929 172.509 34.3835C173.086 34.8286 173.877 35.0559 174.881 35.0653C176.008 35.0843 176.964 34.8523 177.75 34.3693C178.545 33.8769 178.995 33.2803 179.099 32.5795C179.175 32.0871 179.033 31.6894 178.673 31.3864C178.323 31.0833 177.679 30.8324 176.741 30.6335L173.105 29.8807C171.041 29.4545 169.559 28.6922 168.659 27.5938C167.759 26.4953 167.452 25.0985 167.736 23.4034C167.963 22.0492 168.527 20.8892 169.426 19.9233C170.335 18.9479 171.505 18.1998 172.935 17.679C174.374 17.1581 175.998 16.8977 177.807 16.8977C180.638 16.8977 182.769 17.4801 184.199 18.6449C185.638 19.8097 186.325 21.3958 186.259 23.4034Z" fill="#FFFBFB"/>
<path d="M23.9006 18.3608L22.9014 18.3208L22.8598 19.3608H23.9006V18.3608ZM22.8636 15.6193L22.2017 16.3689L22.2065 16.3731L22.8636 15.6193ZM16.9403 15.0795L17.2889 16.0169L17.2993 16.0129L16.9403 15.0795ZM15.1648 16.2301L14.4229 15.5596L14.4222 15.5603L15.1648 16.2301ZM14.3551 17.9062L15.3357 18.1024L15.3391 18.0854L15.3419 18.0683L14.3551 17.9062ZM14.4545 19.2699L13.5389 19.6719L13.543 19.6812L13.5472 19.6903L14.4545 19.2699ZM15.2926 20.2784L14.6926 21.0784L14.7038 21.0868L14.7151 21.0948L15.2926 20.2784ZM16.6705 21.0028L16.3048 21.9336L16.312 21.9364L16.3193 21.9392L16.6705 21.0028ZM18.3608 21.5142L18.6033 20.544L18.5924 20.5414L18.3608 21.5142ZM20.8608 22.1392L20.6183 23.1093L20.6263 23.1113L20.6343 23.1132L20.8608 22.1392ZM24.1562 23.2756L23.7195 24.1752L23.723 24.1768L24.1562 23.2756ZM26.6278 25.0227L25.906 25.7149L25.911 25.7199L26.6278 25.0227ZM28.0483 27.4659L27.0886 27.747L27.0886 27.747L28.0483 27.4659ZM28.1619 30.6903L29.1478 30.8581L29.1487 30.8522L28.1619 30.6903ZM26.0455 35.321L26.8059 35.9704L26.8082 35.9677L26.0455 35.321ZM21.6847 38.3466L22.0518 39.2768L22.0561 39.2751L21.6847 38.3466ZM9.48295 38.3324L9.88909 37.4186L9.88909 37.4186L9.48295 38.3324ZM5.94602 35.1364L5.05636 35.5931L5.06007 35.6001L5.94602 35.1364ZM5.29261 29.8665V28.8665H4.4231L4.30231 29.7276L5.29261 29.8665ZM11.2443 29.8665L12.2387 29.9727L12.3568 28.8665H11.2443V29.8665ZM11.6705 32.3097L10.8108 32.8205L10.8152 32.8279L10.8197 32.8352L11.6705 32.3097ZM13.446 33.7727L13.0574 34.6942L13.067 34.6981L13.446 33.7727ZM19.0142 33.8011L18.669 32.8626L18.6655 32.8639L19.0142 33.8011ZM21.017 32.5369L21.743 33.2247L21.743 33.2247L21.017 32.5369ZM21.9545 30.6761L20.9693 30.5048L20.9674 30.5161L21.9545 30.6761ZM21.6562 29.0284L22.4747 28.4538L21.6562 29.0284ZM20.1506 27.892L19.7236 28.7963L19.7311 28.7998L19.7386 28.8033L20.1506 27.892ZM17.608 27.0398L17.3548 28.0072L17.3633 28.0094L17.3718 28.0115L17.608 27.0398ZM14.5682 26.2443L14.8213 25.2769L14.8144 25.2751L14.5682 26.2443ZM9.24148 23.446L8.51567 24.1339L8.51567 24.1339L9.24148 23.446ZM7.94886 18.3182L6.96326 18.1486L6.96121 18.1615L7.94886 18.3182ZM10.1506 13.7017L9.40198 13.0387L9.40167 13.039L10.1506 13.7017ZM14.5824 10.6193L14.9614 11.5447L14.9639 11.5437L14.5824 10.6193ZM25.9176 10.6335L25.4681 11.5268L25.4727 11.5291L25.9176 10.6335ZM29.1705 13.7301L30.0597 13.2728L30.0597 13.2728L29.1705 13.7301ZM29.7955 18.3608V19.3608H30.6562L30.7843 18.5097L29.7955 18.3608ZM24.8998 18.4008C24.9564 16.9844 24.5359 15.7505 23.5208 14.8655L22.2065 16.3731C22.6687 16.776 22.9394 17.3698 22.9014 18.3208L24.8998 18.4008ZM23.5256 14.8698C22.5392 13.9987 21.1529 13.6534 19.554 13.6534V15.6534C20.9096 15.6534 21.7297 15.9521 22.2017 16.3689L23.5256 14.8698ZM19.554 13.6534C18.459 13.6534 17.4607 13.808 16.5814 14.1462L17.2993 16.0129C17.8972 15.7829 18.6414 15.6534 19.554 15.6534V13.6534ZM16.5919 14.1422C15.7306 14.4624 14.9942 14.9275 14.4229 15.5596L15.9066 16.9007C16.2255 16.5479 16.6728 16.2459 17.2888 16.0169L16.5919 14.1422ZM14.4222 15.5603C13.8598 16.1839 13.5039 16.9183 13.3683 17.7442L15.3419 18.0683C15.4146 17.6253 15.5986 17.2422 15.9073 16.8999L14.4222 15.5603ZM13.3745 17.7101C13.2403 18.3811 13.2672 19.0529 13.5389 19.6719L15.3702 18.8679C15.301 18.7103 15.2616 18.4731 15.3357 18.1024L13.3745 17.7101ZM13.5472 19.6903C13.8038 20.244 14.1959 20.7059 14.6926 21.0784L15.8926 19.4784C15.6317 19.2827 15.4651 19.0722 15.3619 18.8494L13.5472 19.6903ZM14.7151 21.0948C15.1806 21.424 15.7138 21.7014 16.3048 21.9336L17.0361 20.0721C16.5665 19.8876 16.1812 19.682 15.8701 19.462L14.7151 21.0948ZM16.3193 21.9392C16.8917 22.1538 17.4953 22.3361 18.1292 22.487L18.5924 20.5414C18.0331 20.4082 17.5098 20.2496 17.0216 20.0665L16.3193 21.9392ZM18.1183 22.4843L20.6183 23.1093L21.1033 21.1691L18.6033 20.5441L18.1183 22.4843ZM20.6343 23.1132C21.7943 23.383 22.8207 23.7389 23.7195 24.1752L24.593 22.376C23.541 21.8653 22.3705 21.4636 21.0873 21.1652L20.6343 23.1132ZM23.723 24.1768C24.6149 24.6057 25.3369 25.1213 25.9061 25.7148L27.3496 24.3306C26.5931 23.5416 25.6673 22.8924 24.5895 22.3743L23.723 24.1768ZM25.911 25.7199C26.4682 26.2928 26.8592 26.9638 27.0886 27.747L29.008 27.1848C28.6882 26.093 28.1322 25.1352 27.3447 24.3255L25.911 25.7199ZM27.0886 27.747C27.3117 28.5086 27.3558 29.4272 27.1751 30.5284L29.1487 30.8522C29.3658 29.5293 29.3341 28.2982 29.008 27.1848L27.0886 27.747ZM27.1761 30.5225C26.9015 32.1361 26.2684 33.5118 25.2827 34.6743L26.8082 35.9677C28.0385 34.5166 28.8163 32.8052 29.1478 30.8581L27.1761 30.5225ZM25.285 34.6716C24.2958 35.8299 22.9828 36.7503 21.3133 37.4181L22.0561 39.2751C23.985 38.5035 25.5792 37.4068 26.8059 35.9704L25.285 34.6716ZM21.3175 37.4164C19.6581 38.0715 17.7037 38.4119 15.4347 38.4119V40.4119C17.9005 40.4119 20.1127 40.0422 22.0518 39.2767L21.3175 37.4164ZM15.4347 38.4119C13.1828 38.4119 11.3462 38.0662 9.88909 37.4186L9.07682 39.2462C10.8584 40.038 12.9895 40.4119 15.4347 40.4119V38.4119ZM9.88909 37.4186C8.45129 36.7796 7.45416 35.8611 6.83197 34.6726L5.06007 35.6001C5.91515 37.2336 7.27598 38.4458 9.07682 39.2462L9.88909 37.4186ZM6.83565 34.6797C6.22683 33.4937 6.00884 31.9593 6.28292 30.0054L4.30231 29.7276C3.98927 31.9592 4.20688 33.9382 5.05639 35.593L6.83565 34.6797ZM5.29261 30.8665H11.2443V28.8665H5.29261V30.8665ZM10.25 29.7603C10.1296 30.8878 10.2838 31.9336 10.8108 32.8205L12.5301 31.7988C12.2806 31.3789 12.1507 30.7959 12.2387 29.9727L10.25 29.7603ZM10.8197 32.8352C11.3402 33.6779 12.1053 34.2927 13.0575 34.6942L13.8346 32.8513C13.2147 32.5899 12.7962 32.2293 12.5213 31.7842L10.8197 32.8352ZM13.067 34.6981C13.9991 35.0799 15.0565 35.2557 16.2159 35.2557V33.2557C15.2541 33.2557 14.4649 33.1095 13.8251 32.8474L13.067 34.6981ZM16.2159 35.2557C17.3619 35.2557 18.4163 35.0906 19.3629 34.7384L18.6655 32.8639C17.9833 33.1177 17.1722 33.2557 16.2159 33.2557V35.2557ZM19.3594 34.7397C20.3019 34.393 21.1082 33.8947 21.743 33.2247L20.2911 31.8492C19.9031 32.2587 19.3743 32.6032 18.669 32.8626L19.3594 34.7397ZM21.743 33.2247C22.3855 32.5465 22.7943 31.7448 22.9417 30.8362L20.9674 30.5161C20.8875 31.009 20.6713 31.4478 20.2911 31.8492L21.743 33.2247ZM22.9398 30.8475C23.0882 29.9941 22.9716 29.1615 22.4747 28.4538L20.8378 29.603C20.9659 29.7855 21.0482 30.0513 20.9693 30.5048L22.9398 30.8475ZM22.4747 28.4538C22.0264 27.8153 21.3555 27.3393 20.5625 26.9808L19.7386 28.8033C20.3282 29.0698 20.6611 29.3513 20.8378 29.603L22.4747 28.4538ZM20.5776 26.9878C19.8164 26.6283 18.9001 26.3246 17.8441 26.068L17.3718 28.0115C18.3423 28.2473 19.1211 28.5118 19.7236 28.7963L20.5776 26.9878ZM17.8611 26.0723L14.8213 25.2769L14.315 27.2117L17.3548 28.0072L17.8611 26.0723ZM14.8144 25.2751C12.5812 24.7078 10.9988 23.8465 9.96729 22.7581L8.51567 24.1339C9.88942 25.5834 11.8582 26.5877 14.322 27.2135L14.8144 25.2751ZM9.96729 22.7581C9.0303 21.7695 8.6311 20.4007 8.93652 18.4748L6.96121 18.1615C6.58481 20.5349 7.04735 22.5847 8.51567 24.1339L9.96729 22.7581ZM8.93438 18.4877C9.20646 16.9063 9.86003 15.539 10.8995 14.3644L9.40167 13.039C8.11156 14.4969 7.29733 16.2073 6.96334 18.1486L8.93438 18.4877ZM10.8992 14.3647C11.9634 13.1632 13.3103 12.221 14.9614 11.5447L14.2034 9.69393C12.2939 10.476 10.6863 11.5887 9.40198 13.0387L10.8992 14.3647ZM14.9639 11.5437C16.6216 10.8596 18.446 10.5114 20.4489 10.5114V8.51136C18.2093 8.51136 16.1228 8.9018 14.2009 9.69494L14.9639 11.5437ZM20.4489 10.5114C22.4967 10.5114 24.156 10.8666 25.4681 11.5268L26.3671 9.74024C24.7058 8.90427 22.7193 8.51136 20.4489 8.51136V10.5114ZM25.4727 11.5291C26.7911 12.1841 27.7079 13.0729 28.2812 14.1875L30.0597 13.2728C29.2693 11.7358 28.0176 10.5602 26.3625 9.73796L25.4727 11.5291ZM28.2812 14.1875C28.8495 15.2925 29.0467 16.6167 28.8066 18.2119L30.7843 18.5097C31.0745 16.5822 30.8551 14.8192 30.0597 13.2728L28.2812 14.1875ZM29.7955 17.3608H23.9006V19.3608H29.7955V17.3608ZM29.4865 47.1818L28.5003 47.0165L28.3049 48.1818H29.4865V47.1818ZM34.5149 17.1818V16.1818H33.6686L33.5287 17.0165L34.5149 17.1818ZM40.4808 17.1818L41.4672 17.3462L41.6613 16.1818H40.4808V17.1818ZM39.87 20.8466L38.8836 20.6822L38.6896 21.8466H39.87V20.8466ZM40.1399 20.8466V21.8466H40.6999L40.9925 21.3692L40.1399 20.8466ZM41.5746 19.0568L40.862 18.3552L40.8619 18.3553L41.5746 19.0568ZM43.8331 17.5227L44.2455 18.4338L44.2534 18.4301L43.8331 17.5227ZM51.1911 18.1477L50.6185 18.9676L50.6229 18.9706L51.1911 18.1477ZM53.7763 21.8835L52.8233 22.1867L52.8254 22.1932L53.7763 21.8835ZM53.9609 28.1193L52.9745 27.9549L52.974 27.958L53.9609 28.1193ZM51.7592 34.2841L50.9164 33.746L50.9156 33.7472L51.7592 34.2841ZM47.9382 38.0767L48.4379 38.9429L48.4397 38.9419L47.9382 38.0767ZM40.3388 38.7727L39.8781 39.6603L39.8827 39.6627L40.3388 38.7727ZM38.5916 37.3097L37.7718 37.8823L37.7761 37.8884L38.5916 37.3097ZM37.7109 35.5057L38.6736 35.2349L38.4685 34.5057H37.7109V35.5057ZM37.4837 35.5057V34.5057H36.6355L36.4971 35.3425L37.4837 35.5057ZM35.5518 47.1818V48.1818H36.4L36.5384 47.345L35.5518 47.1818ZM38.62 28.0909L37.6327 27.9324L38.62 28.0909ZM38.5916 31.4858L37.6103 31.6782L37.6122 31.6874L38.5916 31.4858ZM39.7848 33.7443L39.1139 34.4859L39.1204 34.4917L39.7848 33.7443ZM44.7706 33.7301L45.3461 34.5479L45.3528 34.5432L44.7706 33.7301ZM46.6882 31.4574L47.572 31.9253L47.5739 31.9217L46.6882 31.4574ZM47.782 28.0909L48.7676 28.2601L48.7697 28.2469L47.782 28.0909ZM47.7962 24.767L46.8152 24.9613L46.8152 24.9613L47.7962 24.767ZM46.6314 22.5227L47.3082 21.7866L47.3082 21.7866L46.6314 22.5227ZM41.6172 22.4943L41.0601 21.6638L41.0554 21.667L41.6172 22.4943ZM39.6996 24.7102L38.8177 24.2387L38.8177 24.2387L39.6996 24.7102ZM30.4727 47.3471L35.5012 17.3471L33.5287 17.0165L28.5003 47.0165L30.4727 47.3471ZM34.5149 18.1818H40.4808V16.1818H34.5149V18.1818ZM39.4944 17.0174L38.8836 20.6822L40.8564 21.011L41.4672 17.3462L39.4944 17.0174ZM39.87 21.8466H40.1399V19.8466H39.87V21.8466ZM40.9925 21.3692C41.3047 20.8598 41.732 20.3224 42.2872 19.7583L40.8619 18.3553C40.2239 19.0034 39.6948 19.6591 39.2873 20.324L40.9925 21.3692ZM42.2871 19.7584C42.7954 19.2422 43.4421 18.7974 44.2455 18.4337L43.4207 16.6117C42.4249 17.0625 41.5658 17.6404 40.862 18.3552L42.2871 19.7584ZM44.2534 18.4301C44.9953 18.0865 45.9021 17.8977 47.0007 17.8977V15.8977C45.6751 15.8977 44.4701 16.1256 43.4128 16.6153L44.2534 18.4301ZM47.0007 17.8977C48.4176 17.8977 49.6099 18.2632 50.6185 18.9676L51.7636 17.3279C50.3858 16.3656 48.7845 15.8977 47.0007 15.8977V17.8977ZM50.6229 18.9706C51.5985 19.6443 52.3459 20.6863 52.8234 22.1867L54.7292 21.5803C54.146 19.7475 53.17 18.2989 51.7592 17.3248L50.6229 18.9706ZM52.8254 22.1932C53.298 23.644 53.3759 25.5466 52.9745 27.9549L54.9473 28.2837C55.3793 25.6921 55.3341 23.4375 54.7271 21.5738L52.8254 22.1932ZM52.974 27.958C52.5931 30.2889 51.898 32.2083 50.9164 33.746L52.6021 34.8222C53.7606 33.0076 54.5333 30.8172 54.9478 28.2806L52.974 27.958ZM50.9156 33.7472C49.9281 35.2989 48.7653 36.4415 47.4367 37.2115L48.4397 38.9419C50.0846 37.9884 51.4691 36.6026 52.6029 34.821L50.9156 33.7472ZM47.4385 37.2105C46.1085 37.9778 44.713 38.3551 43.2365 38.3551V40.3551C45.0744 40.3551 46.8133 39.8802 48.4379 38.9429L47.4385 37.2105ZM43.2365 38.3551C42.1639 38.3551 41.3681 38.1766 40.7949 37.8828L39.8827 39.6627C40.8246 40.1454 41.9606 40.3551 43.2365 40.3551V38.3551ZM40.7994 37.8851C40.1684 37.5576 39.7172 37.1679 39.4071 36.7309L37.7761 37.8884C38.2993 38.6257 39.0129 39.2113 39.8781 39.6603L40.7994 37.8851ZM39.4115 36.7371C39.0492 36.2183 38.8094 35.7177 38.6736 35.2349L36.7483 35.7764C36.9534 36.5058 37.3007 37.2078 37.7718 37.8822L39.4115 36.7371ZM37.7109 34.5057H37.4837V36.5057H37.7109V34.5057ZM36.4971 35.3425L34.5653 47.0186L36.5384 47.345L38.4703 35.6689L36.4971 35.3425ZM35.5518 46.1818H29.4865V48.1818H35.5518V46.1818ZM37.6327 27.9324C37.4115 29.3095 37.392 30.565 37.6103 31.6782L39.5729 31.2934C39.4124 30.4747 39.4119 29.467 39.6074 28.2495L37.6327 27.9324ZM37.6122 31.6874C37.844 32.8137 38.3269 33.7739 39.1139 34.4859L40.4557 33.0028C40.0495 32.6352 39.7369 32.0898 39.5711 31.2841L37.6122 31.6874ZM39.1204 34.4917C39.9385 35.2189 40.9793 35.5398 42.1428 35.5398V33.5398C41.3555 33.5398 40.8243 33.3303 40.4492 32.9969L39.1204 34.4917ZM42.1428 35.5398C43.3227 35.5398 44.4018 35.2124 45.3461 34.5479L44.1951 32.9123C43.6053 33.3274 42.9325 33.5398 42.1428 33.5398V35.5398ZM45.3528 34.5432C46.2643 33.8905 46.9997 33.0063 47.572 31.9253L45.8044 30.9895C45.354 31.8402 44.811 32.4712 44.1884 32.9171L45.3528 34.5432ZM47.5739 31.9217C48.1412 30.8397 48.535 29.615 48.7675 28.2601L46.7964 27.9217C46.5933 29.1047 46.258 30.1244 45.8025 30.9931L47.5739 31.9217ZM48.7697 28.2469C48.9816 26.905 48.9952 25.6741 48.7771 24.5728L46.8152 24.9613C46.9759 25.7729 46.9801 26.7579 46.7942 27.9349L48.7697 28.2469ZM48.7771 24.5728C48.5558 23.4553 48.0838 22.4996 47.3082 21.7866L45.9546 23.2589C46.3533 23.6254 46.6577 24.1659 46.8152 24.9613L48.7771 24.5728ZM47.3082 21.7866C46.4922 21.0364 45.432 20.7131 44.245 20.7131V22.7131C45.0656 22.7131 45.5963 22.9295 45.9546 23.2589L47.3082 21.7866ZM44.245 20.7131C43.0803 20.7131 42.0088 21.0276 41.0602 21.6638L42.1742 23.3248C42.7786 22.9194 43.459 22.7131 44.245 22.7131V20.7131ZM41.0554 21.667C40.1334 22.2931 39.3924 23.1638 38.8177 24.2387L40.5814 25.1817C41.0294 24.3438 41.5669 23.7372 42.1789 23.3216L41.0554 21.667ZM38.8177 24.2387C38.2444 25.3111 37.855 26.548 37.6327 27.9324L39.6074 28.2495C39.8017 27.0392 40.1321 26.0222 40.5814 25.1817L38.8177 24.2387ZM60.5199 38.0057L59.9715 38.8419L59.9753 38.8444L60.5199 38.0057ZM57.4375 34.0284L56.492 34.3541L56.4942 34.3604L57.4375 34.0284ZM57.1108 28.0767L58.0977 28.2378L58.0981 28.2357L57.1108 28.0767ZM59.3551 22.2102L58.5274 21.6491L58.5274 21.6491L59.3551 22.2102ZM63.6875 18.304L64.1556 19.1877L64.1593 19.1857L63.6875 18.304ZM75.1222 18.3324L74.5737 19.1686L74.5776 19.1711L75.1222 18.3324ZM78.2045 22.3097L77.2607 22.64L77.2607 22.64L78.2045 22.3097ZM78.5455 28.2614L79.532 28.4251L79.5324 28.4224L78.5455 28.2614ZM76.2727 34.1136L75.4472 33.5493L75.4472 33.5493L76.2727 34.1136ZM71.9403 38.0341L72.4104 38.9167L72.4142 38.9147L71.9403 38.0341ZM69.3551 33.8722L69.9473 34.6779L69.949 34.6767L69.3551 33.8722ZM71.3295 31.4858L70.4435 31.0221L70.4419 31.0252L71.3295 31.4858ZM72.4375 28.0483L71.4509 27.8851L71.4505 27.8875L72.4375 28.0483ZM72.4801 24.696L71.4964 24.8757L71.4967 24.8774L72.4801 24.696ZM71.3438 22.3665L70.6366 23.0736L70.6425 23.0794L71.3438 22.3665ZM66.2727 22.3949L66.8603 23.2041L66.8666 23.1995L66.2727 22.3949ZM63.2045 28.233L62.2174 28.0733L62.217 28.0758L63.2045 28.233ZM63.1619 31.5852L62.1766 31.7558L62.1769 31.7574L63.1619 31.5852ZM64.2841 33.9006L63.5828 34.6135L63.5889 34.6194L64.2841 33.9006ZM66.0455 38.4261C63.9598 38.4261 62.3209 37.9829 61.0645 37.167L59.9753 38.8444C61.6355 39.9224 63.6804 40.4261 66.0455 40.4261V38.4261ZM61.0683 37.1695C59.7992 36.3372 58.907 35.1914 58.3808 33.6964L56.4942 34.3604C57.1612 36.2555 58.3239 37.7613 59.9715 38.8419L61.0683 37.1695ZM58.383 33.7027C57.8624 32.1914 57.748 30.3812 58.0977 28.2378L56.1238 27.9157C55.735 30.2987 55.8384 32.4564 56.492 34.3541L58.383 33.7027ZM58.0981 28.2357C58.4375 26.1278 59.1375 24.3132 60.1828 22.7714L58.5274 21.6491C57.3 23.4596 56.5038 25.5559 56.1235 27.9177L58.0981 28.2357ZM60.1828 22.7714C61.2295 21.2275 62.5513 20.0375 64.1556 19.1876L63.2194 17.4203C61.3199 18.4265 59.7534 19.8407 58.5274 21.6491L60.1828 22.7714ZM64.1593 19.1857C65.7512 18.3338 67.5607 17.8977 69.6108 17.8977V15.8977C67.2669 15.8977 65.1276 16.3992 63.2157 17.4223L64.1593 19.1857ZM69.6108 17.8977C71.6843 17.8977 73.3173 18.3445 74.5737 19.1686L75.6706 17.4962C74.0104 16.4073 71.9691 15.8977 69.6108 15.8977V17.8977ZM74.5776 19.1711C75.8426 19.9926 76.7342 21.1358 77.2607 22.64L79.1484 21.9793C78.4817 20.0745 77.3184 18.5662 75.6668 17.4937L74.5776 19.1711ZM77.2607 22.64C77.7892 24.15 77.908 25.9584 77.5585 28.1003L79.5324 28.4224C79.9215 26.0378 79.8131 23.8784 79.1484 21.9793L77.2607 22.64ZM77.5589 28.0976C77.2108 30.1954 76.5021 32.0061 75.4472 33.5493L77.0983 34.678C78.335 32.8689 79.1415 30.7781 79.532 28.4251L77.5589 28.0976ZM75.4472 33.5493C74.3892 35.097 73.0643 36.2938 71.4665 37.1535L72.4142 38.9147C74.3012 37.8994 75.8646 36.4826 77.0983 34.678L75.4472 33.5493ZM71.4703 37.1515C69.8877 37.9944 68.087 38.4261 66.0455 38.4261V40.4261C68.3789 40.4261 70.5082 39.9299 72.4104 38.9167L71.4703 37.1515ZM66.642 35.7386C67.8668 35.7386 68.981 35.3881 69.9473 34.6779L68.7629 33.0664C68.1573 33.5115 67.4627 33.7386 66.642 33.7386V35.7386ZM69.949 34.6767C70.8839 33.9866 71.6361 33.0662 72.2172 31.9464L70.4419 31.0252C69.9813 31.913 69.4172 32.5834 68.7613 33.0676L69.949 34.6767ZM72.2155 31.9495C72.8016 30.8297 73.2012 29.5794 73.4245 28.2091L71.4505 27.8875C71.2572 29.074 70.9181 30.1154 70.4436 31.0221L72.2155 31.9495ZM73.4241 28.2115C73.6462 26.869 73.6695 25.6312 73.4635 24.5146L71.4967 24.8774C71.6506 25.7116 71.6455 26.7087 71.4509 27.8851L73.4241 28.2115ZM73.4638 24.5163C73.2557 23.3771 72.8009 22.3971 72.045 21.6536L70.6425 23.0794C71.0419 23.4722 71.3447 24.0452 71.4964 24.8757L73.4638 24.5163ZM72.0509 21.6594C71.2527 20.8612 70.1928 20.5142 69 20.5142V22.5142C69.7958 22.5142 70.2984 22.7354 70.6366 23.0736L72.0509 21.6594ZM69 20.5142C67.7714 20.5142 66.6525 20.8716 65.6789 21.5903L66.8666 23.1995C67.4838 22.7439 68.1831 22.5142 69 22.5142V20.5142ZM65.6851 21.5857C64.7442 22.2691 63.99 23.1936 63.4089 24.3241L65.1877 25.2384C65.6483 24.3423 66.2104 23.676 66.8603 23.204L65.6851 21.5857ZM63.4089 24.3241C62.8337 25.4432 62.4401 26.6965 62.2174 28.0733L64.1917 28.3926C64.3857 27.1937 64.7213 26.1458 65.1877 25.2384L63.4089 24.3241ZM62.217 28.0758C62.0052 29.4069 61.9831 30.6381 62.1766 31.7558L64.1473 31.4147C63.9998 30.5627 64.0062 29.5591 64.1921 28.3901L62.217 28.0758ZM62.1769 31.7574C62.3751 32.8918 62.8261 33.8692 63.5829 34.6135L64.9853 33.1876C64.5867 32.7956 64.2897 32.2294 64.147 31.4131L62.1769 31.7574ZM63.5889 34.6194C64.395 35.399 65.4532 35.7386 66.642 35.7386V33.7386C65.8423 33.7386 65.3285 33.5195 64.9793 33.1818L63.5889 34.6194ZM80.6903 39L79.7039 38.8356L79.5099 40H80.6903V39ZM84.3267 17.1818V16.1818H83.4796L83.3403 17.0174L84.3267 17.1818ZM90.1932 17.1818L91.1794 17.3474L91.3751 16.1818H90.1932V17.1818ZM89.554 20.9886L88.5678 20.823L88.3721 21.9886H89.554V20.9886ZM89.7812 20.9886V21.9886H90.4211L90.6892 21.4077L89.7812 20.9886ZM92.2955 17.9205L92.8449 18.756L92.8467 18.7548L92.2955 17.9205ZM96.6705 16.9261L96.5569 17.9197L96.5721 17.9214L96.5874 17.9227L96.6705 16.9261ZM97.5795 17.0682L98.5656 17.2347L98.7196 16.3224L97.8221 16.098L97.5795 17.0682ZM96.6705 22.4517L96.3341 23.3934L97.4578 23.7948L97.6565 22.6182L96.6705 22.4517ZM95.5341 22.2244L95.3981 23.2151L95.4088 23.2166L95.4195 23.2178L95.5341 22.2244ZM91.6989 22.7074L92.1461 23.6019L92.155 23.5973L91.6989 22.7074ZM89.7812 24.2983L88.9865 23.6912L88.9812 23.6983L89.7812 24.2983ZM88.7727 26.6562L87.7887 26.4783L87.7873 26.4861L87.786 26.4939L88.7727 26.6562ZM86.7415 39V40H87.5904L87.7282 39.1624L86.7415 39ZM81.6767 39.1644L85.3131 17.3462L83.3403 17.0174L79.7039 38.8356L81.6767 39.1644ZM84.3267 18.1818H90.1932V16.1818H84.3267V18.1818ZM89.207 17.0162L88.5678 20.823L90.5402 21.1542L91.1794 17.3474L89.207 17.0162ZM89.554 21.9886H89.7812V19.9886H89.554V21.9886ZM90.6892 21.4077C91.2506 20.1913 91.9767 19.3269 92.8449 18.756L91.746 17.0849C90.5119 17.8965 89.5619 19.0777 88.8733 20.5696L90.6892 21.4077ZM92.8467 18.7548C93.7508 18.1575 94.7014 17.8693 95.7188 17.8693V15.8693C94.2929 15.8693 92.9613 16.2819 91.7442 17.0861L92.8467 18.7548ZM95.7188 17.8693C95.9803 17.8693 96.2595 17.8857 96.5569 17.9197L96.784 15.9326C96.4186 15.8908 96.0633 15.8693 95.7188 15.8693V17.8693ZM96.5874 17.9227C96.8873 17.9477 97.1353 17.9879 97.337 18.0383L97.8221 16.098C97.4935 16.0159 97.1354 15.9614 96.7535 15.9296L96.5874 17.9227ZM96.5935 16.9017L95.6844 22.2852L97.6565 22.6182L98.5656 17.2347L96.5935 16.9017ZM97.0068 21.51C96.6356 21.3774 96.1689 21.291 95.6487 21.231L95.4195 23.2178C95.8841 23.2715 96.175 23.3366 96.3341 23.3934L97.0068 21.51ZM95.6701 21.2337C95.1473 21.162 94.6423 21.125 94.1562 21.125V23.125C94.5414 23.125 94.955 23.1543 95.3981 23.2151L95.6701 21.2337ZM94.1562 21.125C93.1226 21.125 92.1465 21.3543 91.2428 21.8175L92.155 23.5973C92.7664 23.2839 93.4285 23.125 94.1562 23.125V21.125ZM91.2517 21.813C90.3561 22.2608 89.5986 22.8901 88.9866 23.6913L90.5759 24.9053C91.0056 24.3429 91.5265 23.9116 92.1461 23.6018L91.2517 21.813ZM88.9812 23.6983C88.3708 24.5122 87.9756 25.4447 87.7887 26.4783L89.7568 26.8342C89.8918 26.0875 90.1689 25.4481 90.5813 24.8983L88.9812 23.6983ZM87.786 26.4939L85.7547 38.8376L87.7282 39.1624L89.7595 26.8186L87.786 26.4939ZM86.7415 38H80.6903V40H86.7415V38ZM113.393 17.1818L114.379 17.3452L114.572 16.1818H113.393V17.1818ZM112.64 21.7273V22.7273H113.488L113.626 21.8907L112.64 21.7273ZM99.4865 21.7273L98.5004 21.5609L98.3036 22.7273H99.4865V21.7273ZM100.254 17.1818V16.1818H99.4082L99.2675 17.0154L100.254 17.1818ZM104.089 11.9545V10.9545H103.241L103.102 11.7914L104.089 11.9545ZM110.14 11.9545L111.126 12.1185L111.32 10.9545H110.14V11.9545ZM106.759 32.2955L107.745 32.4626L107.746 32.4594L106.759 32.2955ZM106.802 33.6023L105.871 33.9688L105.875 33.9786L106.802 33.6023ZM107.413 34.2415L107.015 35.1591L107.026 35.1637L107.413 34.2415ZM109.33 34.3551L109.489 35.3424L109.505 35.3399L109.52 35.3369L109.33 34.3551ZM109.998 34.2273L110.997 34.1769L110.939 33.0334L109.814 33.2444L109.998 34.2273ZM110.225 38.7301L110.517 39.6865L111.263 39.4586L111.224 38.6797L110.225 38.7301ZM108.847 39.071L108.639 38.093L108.636 38.0937L108.847 39.071ZM106.83 39.2983L106.794 38.299L106.792 38.299L106.83 39.2983ZM103.08 38.7159L102.674 39.6297L102.681 39.6328L103.08 38.7159ZM100.879 36.6278L101.782 36.199L101.782 36.199L100.879 36.6278ZM100.594 33.0909L101.579 33.2681L101.58 33.261L101.581 33.254L100.594 33.0909ZM112.406 17.0184L111.653 21.5639L113.626 21.8907L114.379 17.3452L112.406 17.0184ZM112.64 20.7273H99.4865V22.7273H112.64V20.7273ZM100.473 21.8937L101.24 17.3482L99.2675 17.0154L98.5004 21.5609L100.473 21.8937ZM100.254 18.1818H113.393V16.1818H100.254V18.1818ZM104.089 12.9545H110.14V10.9545H104.089V12.9545ZM109.153 11.7906L105.773 32.1315L107.746 32.4594L111.126 12.1185L109.153 11.7906ZM105.773 32.1283C105.667 32.7574 105.65 33.407 105.871 33.9688L107.732 33.2357C107.707 33.1725 107.662 32.951 107.745 32.4626L105.773 32.1283ZM105.875 33.9786C106.091 34.5092 106.476 34.9254 107.015 35.159L107.81 33.3239C107.784 33.3127 107.775 33.3036 107.77 33.2985C107.764 33.2925 107.748 33.2735 107.728 33.2259L105.875 33.9786ZM107.026 35.1637C107.471 35.3503 107.959 35.4261 108.464 35.4261V33.4261C108.154 33.4261 107.941 33.3789 107.799 33.3193L107.026 35.1637ZM108.464 35.4261C108.804 35.4261 109.146 35.3978 109.489 35.3424L109.171 33.3679C108.928 33.4071 108.692 33.4261 108.464 33.4261V35.4261ZM109.52 35.3369C109.813 35.2802 110.034 35.238 110.182 35.2101L109.814 33.2444C109.659 33.2734 109.434 33.3164 109.14 33.3733L109.52 35.3369ZM108.999 34.2777L109.226 38.7805L111.224 38.6797L110.997 34.1769L108.999 34.2777ZM109.933 37.7738C109.632 37.8658 109.204 37.9725 108.639 38.093L109.056 40.0491C109.646 39.9233 110.137 39.8027 110.517 39.6865L109.933 37.7738ZM108.636 38.0937C108.14 38.201 107.53 38.272 106.794 38.299L106.867 40.2976C107.684 40.2677 108.418 40.1873 109.059 40.0483L108.636 38.0937ZM106.792 38.299C105.418 38.3519 104.327 38.1679 103.479 37.799L102.681 39.6328C103.879 40.1541 105.288 40.3584 106.869 40.2976L106.792 38.299ZM103.486 37.8021C102.664 37.4364 102.116 36.903 101.782 36.199L99.9752 37.0567C100.531 38.2277 101.452 39.0863 102.674 39.6297L103.486 37.8021ZM101.782 36.199C101.455 35.511 101.346 34.5611 101.579 33.2681L99.6103 32.9138C99.3317 34.4616 99.4117 35.8697 99.9752 37.0567L101.782 36.199ZM101.581 33.254L105.075 12.1177L103.102 11.7914L99.6079 32.9278L101.581 33.254ZM114.281 39L113.294 38.8362L113.101 40H114.281V39ZM119.11 9.90909V8.90909H118.262L118.124 9.74532L119.11 9.90909ZM136.013 11.0739L135.534 11.9513L135.536 11.9526L136.013 11.0739ZM139.025 14.3835L138.098 14.7581L138.101 14.7655L139.025 14.3835ZM139.437 19.4119L140.423 19.5763L140.424 19.5716L139.437 19.4119ZM137.349 24.3835L136.558 23.7715L136.555 23.7749L137.349 24.3835ZM133.201 27.5795L133.6 28.4963L133.603 28.4952L133.201 27.5795ZM119.621 28.6875L118.636 28.5176L118.434 29.6875H119.621V28.6875ZM120.474 23.7443V22.7443H119.631L119.488 23.5744L120.474 23.7443ZM130.161 23.2614L130.522 24.1942L130.522 24.1942L130.161 23.2614ZM132.136 21.8125L131.341 21.205L131.336 21.2125L132.136 21.8125ZM133.102 19.4119L132.115 19.2491L132.114 19.2555L133.102 19.4119ZM132.931 16.9688L132.007 17.3515L132.009 17.3562L132.931 16.9688ZM131.44 15.4631L131.002 16.3622L131.012 16.3668L131.44 15.4631ZM124.451 14.9375V13.9375H123.604L123.465 14.7727L124.451 14.9375ZM120.431 39V40H121.278L121.417 39.1648L120.431 39ZM132.178 25.7614L133.113 25.4054L132.867 24.7614H132.178V25.7614ZM137.221 39V40H138.672L138.155 38.644L137.221 39ZM130.431 39L129.493 39.3463L129.734 40H130.431V39ZM125.545 25.7614V24.7614H124.11L124.607 26.1076L125.545 25.7614ZM115.267 39.1638L120.097 10.0729L118.124 9.74532L113.294 38.8362L115.267 39.1638ZM119.11 10.9091H130.587V8.90909H119.11V10.9091ZM130.587 10.9091C132.674 10.9091 134.304 11.2788 135.534 11.9513L136.493 10.1964C134.882 9.31589 132.895 8.90909 130.587 8.90909V10.9091ZM135.536 11.9526C136.774 12.625 137.612 13.5558 138.098 14.7581L139.952 14.009C139.282 12.3514 138.112 11.0758 136.491 10.1951L135.536 11.9526ZM138.101 14.7655C138.6 15.9738 138.741 17.454 138.45 19.2522L140.424 19.5716C140.758 17.5063 140.624 15.6342 139.949 14.0015L138.101 14.7655ZM138.45 19.2475C138.152 21.0362 137.515 22.5347 136.558 23.7715L138.14 24.9956C139.322 23.4672 140.077 21.6513 140.423 19.5763L138.45 19.2475ZM136.555 23.7749C135.604 25.0146 134.36 25.9787 132.799 26.6639L133.603 28.4952C135.451 27.6842 136.972 26.5176 138.142 24.9922L136.555 23.7749ZM132.802 26.6628C131.256 27.3363 129.432 27.6875 127.306 27.6875V29.6875C129.65 29.6875 131.756 29.3 133.6 28.4963L132.802 26.6628ZM127.306 27.6875H119.621V29.6875H127.306V27.6875ZM120.607 28.8574L121.459 23.9142L119.488 23.5744L118.636 28.5176L120.607 28.8574ZM120.474 24.7443H127.15V22.7443H120.474V24.7443ZM127.15 24.7443C128.411 24.7443 129.543 24.5721 130.522 24.1942L129.801 22.3286C129.112 22.5946 128.238 22.7443 127.15 22.7443V24.7443ZM130.522 24.1942C131.51 23.8123 132.328 23.2225 132.936 22.4125L131.336 21.2125C130.977 21.6904 130.479 22.0665 129.801 22.3286L130.522 24.1942ZM132.93 22.4199C133.541 21.6206 133.917 20.6571 134.089 19.5684L132.114 19.2555C131.983 20.0797 131.715 20.7165 131.341 21.2051L132.93 22.4199ZM134.088 19.5748C134.268 18.4839 134.224 17.4641 133.853 16.5813L132.009 17.3562C132.187 17.7802 132.257 18.3892 132.115 19.2491L134.088 19.5748ZM133.855 16.586C133.475 15.6682 132.785 14.9938 131.868 14.5593L131.012 16.3668C131.534 16.6141 131.838 16.9435 132.007 17.3515L133.855 16.586ZM131.877 14.564C130.973 14.1236 129.859 13.9375 128.599 13.9375V15.9375C129.687 15.9375 130.467 16.1018 131.002 16.3622L131.877 14.564ZM128.599 13.9375H124.451V15.9375H128.599V13.9375ZM123.465 14.7727L119.445 38.8352L121.417 39.1648L125.437 15.1023L123.465 14.7727ZM120.431 38H114.281V40H120.431V38ZM131.244 26.1173L136.286 39.356L138.155 38.644L133.113 25.4054L131.244 26.1173ZM137.221 38H130.431V40H137.221V38ZM131.369 38.6537L126.483 25.4151L124.607 26.1076L129.493 39.3463L131.369 38.6537ZM125.545 26.7614H132.178V24.7614H125.545V26.7614ZM156.191 29.7102L155.205 29.5458L155.203 29.5567L156.191 29.7102ZM158.279 17.1818V16.1818H157.432L157.293 17.0174L158.279 17.1818ZM164.33 17.1818L165.317 17.3462L165.511 16.1818H164.33V17.1818ZM160.694 39V40H161.541L161.68 39.1644L160.694 39ZM154.884 39L153.898 38.8373L153.706 40H154.884V39ZM155.538 35.0369L156.524 35.1996L156.716 34.0369H155.538V35.0369ZM155.31 35.0369V34.0369H154.706L154.425 34.5715L155.31 35.0369ZM152.37 38.1193L152.886 38.9757L152.37 38.1193ZM144.288 38.2898L143.733 39.1218L143.737 39.1242L144.288 38.2898ZM142.171 35.4631L141.225 35.7859L141.225 35.7859L142.171 35.4631ZM141.958 31.0739L140.972 30.9085L140.971 30.9148L141.958 31.0739ZM144.288 17.1818V16.1818H143.441L143.301 17.0164L144.288 17.1818ZM150.339 17.1818L151.325 17.3459L151.519 16.1818H150.339V17.1818ZM148.208 29.9943L147.222 29.8303L147.22 29.8417L148.208 29.9943ZM148.748 33.0483L149.549 32.4499L149.549 32.4499L148.748 33.0483ZM153.421 33.6733L153.858 34.5727L153.863 34.5702L153.421 33.6733ZM155.211 32.1676L154.414 31.564L154.414 31.564L155.211 32.1676ZM157.177 29.8746L159.266 17.3462L157.293 17.0174L155.205 29.5458L157.177 29.8746ZM158.279 18.1818H164.33V16.1818H158.279V18.1818ZM163.344 17.0174L159.707 38.8356L161.68 39.1644L165.317 17.3462L163.344 17.0174ZM160.694 38H154.884V40H160.694V38ZM155.871 39.1627L156.524 35.1996L154.551 34.8743L153.898 38.8373L155.871 39.1627ZM155.538 34.0369H155.31V36.0369H155.538V34.0369ZM154.425 34.5715C153.841 35.6815 152.992 36.5766 151.854 37.2629L152.886 38.9757C154.324 38.109 155.435 36.9491 156.195 35.5024L154.425 34.5715ZM151.854 37.2629C150.735 37.9372 149.454 38.2841 147.981 38.2841V40.2841C149.784 40.2841 151.429 39.8545 152.886 38.9757L151.854 37.2629ZM147.981 38.2841C146.676 38.2841 145.647 37.9892 144.839 37.4553L143.737 39.1242C144.936 39.9161 146.369 40.2841 147.981 40.2841V38.2841ZM144.842 37.4577C144.046 36.9269 143.469 36.1714 143.118 35.1402L141.225 35.7859C141.706 37.198 142.541 38.3269 143.733 39.1218L144.842 37.4577ZM143.118 35.1402C142.769 34.1169 142.688 32.8282 142.945 31.2329L140.971 30.9148C140.679 32.7286 140.74 34.366 141.225 35.7859L143.118 35.1402ZM142.944 31.2392L145.274 17.3472L143.301 17.0164L140.972 30.9085L142.944 31.2392ZM144.288 18.1818H150.339V16.1818H144.288V18.1818ZM149.352 17.0178L147.222 29.8303L149.195 30.1584L151.325 17.3459L149.352 17.0178ZM147.22 29.8417C146.996 31.2879 147.172 32.61 147.947 33.6467L149.549 32.4499C149.206 31.9904 149.022 31.2765 149.196 30.1469L147.22 29.8417ZM147.947 33.6467C148.737 34.7054 149.923 35.1705 151.305 35.1705V33.1705C150.394 33.1705 149.876 32.8874 149.549 32.4499L147.947 33.6467ZM151.305 35.1705C152.191 35.1705 153.046 34.9676 153.858 34.5727L152.984 32.7739C152.433 33.0418 151.876 33.1705 151.305 33.1705V35.1705ZM153.863 34.5702C154.705 34.1551 155.42 33.5482 156.008 32.7713L154.414 31.564C153.998 32.1128 153.52 32.5096 152.979 32.7764L153.863 34.5702ZM156.008 32.7713C156.627 31.9538 157.007 30.9721 157.179 29.8637L155.203 29.5567C155.072 30.3991 154.799 31.0557 154.414 31.564L156.008 32.7713ZM186.259 23.4034L186.32 24.4015L187.228 24.3452L187.258 23.4364L186.259 23.4034ZM180.761 23.7443L179.763 23.803L179.822 24.8045L180.823 24.7424L180.761 23.7443ZM180.364 22.4517L179.501 22.9569L179.508 22.9694L179.516 22.9817L180.364 22.4517ZM179.355 21.5284L178.893 22.415L178.9 22.419L179.355 21.5284ZM175.051 21.8693L174.546 21.0063L174.546 21.0063L175.051 21.8693ZM173.73 23.6165L174.713 23.8008L174.717 23.7812L174.72 23.7616L173.73 23.6165ZM176.031 25.5625L175.813 26.5385L175.821 26.5401L175.828 26.5417L176.031 25.5625ZM179.866 26.358L180.075 25.3799L180.07 25.3788L179.866 26.358ZM184.298 28.5312L183.554 29.1991L183.557 29.2029L184.298 28.5312ZM185.278 32.5085L186.264 32.6762L186.266 32.6683L185.278 32.5085ZM183.446 36.1591L184.17 36.8494L184.173 36.8461L183.446 36.1591ZM179.696 38.5739L180.047 39.5102L180.052 39.5083L179.696 38.5739ZM167.892 37.608L168.51 36.8215L168.51 36.8215L167.892 37.608ZM165.662 32.679L165.609 31.6804L164.688 31.7291L164.662 32.6516L165.662 32.679ZM171.571 32.3665L172.57 32.3134L172.517 31.3151L171.518 31.3679L171.571 32.3665ZM172.509 34.3835L171.89 35.1694L171.898 35.1757L172.509 34.3835ZM174.881 35.0653L174.897 34.0655L174.89 34.0654L174.881 35.0653ZM177.75 34.3693L178.274 35.2213L178.276 35.2196L177.75 34.3693ZM179.099 32.5795L178.111 32.4275L178.11 32.4325L179.099 32.5795ZM178.673 31.3864L178.019 32.1428L178.029 32.1513L178.673 31.3864ZM176.741 30.6335L176.949 29.6553L176.944 29.6543L176.741 30.6335ZM173.105 29.8807L173.308 28.9014L173.307 28.9013L173.105 29.8807ZM168.659 27.5938L167.885 28.2274L167.885 28.2274L168.659 27.5938ZM167.736 23.4034L166.75 23.2379L166.75 23.2381L167.736 23.4034ZM169.426 19.9233L168.695 19.2415L168.694 19.2417L169.426 19.9233ZM172.935 17.679L172.594 16.7386L172.592 16.7394L172.935 17.679ZM184.199 18.6449L183.567 19.4202L183.57 19.4222L184.199 18.6449ZM186.197 22.4053L180.699 22.7462L180.823 24.7424L186.32 24.4015L186.197 22.4053ZM181.76 23.6856C181.722 23.0497 181.544 22.4542 181.212 21.9217L179.516 22.9817C179.656 23.2068 179.744 23.473 179.763 23.803L181.76 23.6856ZM181.227 21.9465C180.892 21.3755 180.406 20.942 179.81 20.6378L178.9 22.419C179.195 22.5694 179.38 22.7514 179.501 22.9569L181.227 21.9465ZM179.818 20.6418C179.198 20.3186 178.478 20.1875 177.707 20.1875V22.1875C178.263 22.1875 178.641 22.2836 178.893 22.415L179.818 20.6418ZM177.707 20.1875C176.555 20.1875 175.491 20.4528 174.546 21.0063L175.556 22.7323C176.164 22.3767 176.871 22.1875 177.707 22.1875V20.1875ZM174.546 21.0063C173.58 21.5717 172.9 22.3862 172.741 23.4714L174.72 23.7616C174.769 23.4263 174.969 23.0761 175.556 22.7323L174.546 21.0063ZM172.747 23.4322C172.602 24.2042 172.817 24.9301 173.389 25.4846L174.782 24.0495C174.727 23.9961 174.715 23.9633 174.71 23.9501C174.706 23.9356 174.696 23.8929 174.713 23.8008L172.747 23.4322ZM173.389 25.4846C173.929 26.0094 174.829 26.3188 175.813 26.5385L176.249 24.5865C175.282 24.3706 174.885 24.1497 174.782 24.0495L173.389 25.4846ZM175.828 26.5417L179.663 27.3371L180.07 25.3788L176.234 24.5833L175.828 26.5417ZM179.658 27.336C181.601 27.7497 182.844 28.4075 183.554 29.1991L185.043 27.8634C183.935 26.6285 182.223 25.8374 180.075 25.3799L179.658 27.336ZM183.557 29.2029C184.228 29.9425 184.519 30.9397 184.291 32.3488L186.266 32.6683C186.568 30.8008 186.206 29.1465 185.039 27.8596L183.557 29.2029ZM184.293 32.3409C184.09 33.5348 183.571 34.5718 182.719 35.4721L184.173 36.8461C185.291 35.6631 185.994 34.2663 186.264 32.6762L184.293 32.3409ZM182.723 35.4688C181.854 36.3795 180.735 37.1076 179.34 37.6395L180.052 39.5083C181.687 38.8849 183.069 38.0031 184.17 36.8494L182.723 35.4688ZM179.345 37.6375C177.957 38.1581 176.397 38.4261 174.653 38.4261V40.4261C176.603 40.4261 178.405 40.126 180.047 39.5102L179.345 37.6375ZM174.653 38.4261C171.804 38.4261 169.807 37.8404 168.51 36.8215L167.274 38.3944C169.064 39.7998 171.574 40.4261 174.653 40.4261V38.4261ZM168.51 36.8215C167.231 35.8176 166.613 34.4849 166.662 32.7064L164.662 32.6516C164.597 35.0208 165.466 36.9741 167.274 38.3944L168.51 36.8215ZM165.715 33.6776L171.624 33.3651L171.518 31.3679L165.609 31.6804L165.715 33.6776ZM170.572 32.4196C170.632 33.5307 171.038 34.4992 171.89 35.1694L173.127 33.5977C172.823 33.3587 172.605 32.9826 172.57 32.3134L170.572 32.4196ZM171.898 35.1757C172.703 35.7955 173.73 36.0545 174.871 36.0653L174.89 34.0654C174.023 34.0572 173.47 33.8617 173.119 33.5914L171.898 35.1757ZM174.864 36.0652C176.139 36.0866 177.292 35.8241 178.274 35.2213L177.226 33.5173C176.636 33.8804 175.876 34.0819 174.897 34.0655L174.864 36.0652ZM178.276 35.2196C179.237 34.6252 179.928 33.805 180.089 32.7266L178.11 32.4325C178.062 32.7556 177.854 33.1286 177.224 33.5191L178.276 35.2196ZM180.088 32.7316C180.213 31.9191 179.963 31.1648 179.317 30.6215L178.029 32.1513C178.09 32.2021 178.103 32.2345 178.108 32.2483C178.114 32.2648 178.128 32.3159 178.111 32.4275L180.088 32.7316ZM179.327 30.63C178.772 30.15 177.911 29.8592 176.949 29.6553L176.534 31.6118C177.447 31.8055 177.873 32.0167 178.019 32.1427L179.327 30.63ZM176.944 29.6543L173.308 28.9014L172.902 30.8599L176.539 31.6128L176.944 29.6543ZM173.307 28.9013C171.363 28.4999 170.131 27.8132 169.433 26.9601L167.885 28.2274C168.986 29.5713 170.719 30.4092 172.903 30.86L173.307 28.9013ZM169.433 26.9601C168.754 26.1314 168.475 25.0446 168.722 23.5687L166.75 23.2381C166.429 25.1524 166.765 26.8591 167.885 28.2274L169.433 26.9601ZM168.722 23.5689C168.918 22.3998 169.397 21.4214 170.158 20.6048L168.694 19.2417C167.656 20.357 167.008 21.6987 166.75 23.2379L168.722 23.5689ZM170.158 20.6051C170.945 19.7605 171.974 19.0931 173.277 18.6186L172.592 16.7394C171.035 17.3065 169.726 18.1353 168.695 19.2415L170.158 20.6051ZM173.275 18.6193C174.587 18.1444 176.094 17.8977 177.807 17.8977V15.8977C175.903 15.8977 174.161 16.1719 172.594 16.7386L173.275 18.6193ZM177.807 17.8977C180.525 17.8977 182.389 18.4606 183.567 19.4202L184.83 17.8696C183.149 16.4996 180.751 15.8977 177.807 15.8977V17.8977ZM183.57 19.4222C184.743 20.3713 185.316 21.6453 185.259 23.3704L187.258 23.4364C187.334 21.1463 186.534 19.248 184.828 17.8675L183.57 19.4222Z" fill="black" mask="url(#path-1-outside-1_4_26)"/>
</g>
<path d="M186.5 35L188.408 39.8369H194.584L189.588 42.8262L191.496 47.6631L186.5 44.6738L181.504 47.6631L183.412 42.8262L178.416 39.8369H184.592L186.5 35Z" fill="#6F0A0A"/>
<defs>
<filter id="filter0_d_4_26" x="0.852264" y="9.51135" width="189.506" height="45.6705" filterUnits="userSpaceOnUse" color-interpolation-filters="sRGB">
<feFlood flood-opacity="0" result="BackgroundImageFix"/>
<feColorMatrix in="SourceAlpha" type="matrix" values="0 0 0 0 0 0 0 0 0 0 0 0 0 0 0 0 0 0 127 0" result="hardAlpha"/>
<feOffset dy="4"/>
<feGaussianBlur stdDeviation="2"/>
<feComposite in2="hardAlpha" operator="out"/>
<feColorMatrix type="matrix" values="0 0 0 0 0 0 0 0 0 0 0 0 0 0 0 0 0 0 0.25 0"/>
<feBlend mode="normal" in2="BackgroundImageFix" result="effect1_dropShadow_4_26"/>
<feBlend mode="normal" in="SourceGraphic" in2="effect1_dropShadow_4_26" result="shape"/>
</filter>
</defs>
</svg>
